<svg width="67" height="53" viewBox="0 0 67 53" fill="none" xmlns="http://www.w3.org/2000/svg">
  <path d="M0.0416565 27.8542V41.3958C0.0416565 42.1141 0.362117 42.803 0.93254 43.3109C1.50296 43.8188 2.27662 44.1042 3.08332 44.1042H6.12499C6.12499 46.2591 7.08637 48.3257 8.79764 49.8494C10.5089 51.3732 12.8299 52.2292 15.25 52.2292C17.6701 52.2292 19.9911 51.3732 21.7023 49.8494C23.4136 48.3257 24.375 46.2591 24.375 44.1042H42.625C42.625 46.2591 43.5864 48.3257 45.2976 49.8494C47.0089 51.3732 49.3299 52.2292 51.75 52.2292C54.1701 52.2292 56.4911 51.3732 58.2023 49.8494C59.9136 48.3257 60.875 46.2591 60.875 44.1042H63.9167C64.7234 44.1042 65.497 43.8188 66.0674 43.3109C66.6379 42.803 66.9583 42.1141 66.9583 41.3958V8.89584C66.9583 6.74096 65.9969 4.67433 64.2857 3.1506C62.5744 1.62687 60.2534 0.770844 57.8333 0.770844H30.4583C28.0382 0.770844 25.7172 1.62687 24.006 3.1506C22.2947 4.67433 21.3333 6.74096 21.3333 8.89584V14.3125H15.25C13.8334 14.3125 12.4362 14.6062 11.1692 15.1703C9.90211 15.7344 8.79996 16.5534 7.94999 17.5625L0.64999 26.2292C0.561025 26.3469 0.489464 26.4743 0.437073 26.6083L0.254573 26.9063C0.120332 27.2083 0.0482114 27.5294 0.0416565 27.8542ZM48.7083 44.1042C48.7083 43.5685 48.8867 43.0449 49.2209 42.5995C49.5552 42.1541 50.0302 41.807 50.586 41.602C51.1418 41.397 51.7534 41.3434 52.3434 41.4479C52.9334 41.5524 53.4754 41.8103 53.9008 42.1891C54.3262 42.5679 54.6158 43.0504 54.7332 43.5758C54.8506 44.1012 54.7903 44.6457 54.5601 45.1406C54.3299 45.6355 53.94 46.0585 53.4398 46.3561C52.9396 46.6537 52.3516 46.8125 51.75 46.8125C50.9433 46.8125 50.1696 46.5272 49.5992 46.0193C49.0288 45.5113 48.7083 44.8225 48.7083 44.1042ZM27.4167 8.89584C27.4167 8.17755 27.7371 7.48867 28.3075 6.98076C28.878 6.47285 29.6516 6.18751 30.4583 6.18751H57.8333C58.64 6.18751 59.4137 6.47285 59.9841 6.98076C60.5545 7.48867 60.875 8.17755 60.875 8.89584V38.6875H58.5025C57.6472 37.8497 56.6047 37.1802 55.4419 36.7222C54.2791 36.2641 53.0215 36.0274 51.75 36.0274C50.4784 36.0274 49.2209 36.2641 48.0581 36.7222C46.8952 37.1802 45.8527 37.8497 44.9975 38.6875H27.4167V8.89584ZM21.3333 25.1458H9.16666L12.8167 20.8125C13.1 20.4761 13.4674 20.2031 13.8897 20.0151C14.3121 19.8271 14.7778 19.7292 15.25 19.7292H21.3333V25.1458ZM12.2083 44.1042C12.2083 43.5685 12.3867 43.0449 12.7209 42.5995C13.0552 42.1541 13.5302 41.807 14.086 41.602C14.6418 41.397 15.2534 41.3434 15.8434 41.4479C16.4334 41.5524 16.9754 41.8103 17.4008 42.1891C17.8262 42.5679 18.1158 43.0504 18.2332 43.5758C18.3506 44.1012 18.2903 44.6457 18.0601 45.1406C17.8299 45.6355 17.44 46.0585 16.9398 46.3561C16.4396 46.6537 15.8516 46.8125 15.25 46.8125C14.4433 46.8125 13.6696 46.5272 13.0992 46.0193C12.5288 45.5113 12.2083 44.8225 12.2083 44.1042ZM6.12499 30.5625H21.3333V38.0917C19.5382 36.6632 17.1819 35.9242 14.7776 36.0358C12.3733 36.1474 10.116 37.1006 8.49749 38.6875H6.12499V30.5625Z" fill="#393939"></path>
</svg>