<svg width="49" height="49" viewBox="0 0 49 49" fill="none" xmlns="http://www.w3.org/2000/svg">
                    <path d="M24.5 0.75C11.4375 0.75 0.75 11.4375 0.75 24.5C0.75 29.9625 2.65 35.1875 6.2125 39.4625L1.4625 44.2125C0.5125 45.1625 0.5125 46.5875 1.4625 47.5375C1.9375 48.0125 2.4125 48.25 3.125 48.25H24.5C37.5625 48.25 48.25 37.5625 48.25 24.5C48.25 11.4375 37.5625 0.75 24.5 0.75ZM15 26.875C13.575 26.875 12.625 25.925 12.625 24.5C12.625 23.075 13.575 22.125 15 22.125C16.425 22.125 17.375 23.075 17.375 24.5C17.375 25.925 16.425 26.875 15 26.875ZM24.5 26.875C23.075 26.875 22.125 25.925 22.125 24.5C22.125 23.075 23.075 22.125 24.5 22.125C25.925 22.125 26.875 23.075 26.875 24.5C26.875 25.925 25.925 26.875 24.5 26.875ZM34 26.875C32.575 26.875 31.625 25.925 31.625 24.5C31.625 23.075 32.575 22.125 34 22.125C35.425 22.125 36.375 23.075 36.375 24.5C36.375 25.925 35.425 26.875 34 26.875Z" fill="#393939"></path>
                    </svg>