<svg width="46" height="46" viewBox="0 0 46 46" fill="none" xmlns="http://www.w3.org/2000/svg">
<path d="M41.7833 30.6667C42.9333 30.6667 44.0833 31.8167 44.0833 33.1583V39.8667C44.0833 41.0167 42.9333 42.1667 41.5917 42.1667H31.05C29.9 42.1667 28.75 41.0167 28.75 39.675V32.9667C28.75 31.8167 29.9 30.6667 31.05 30.6667V25.875C31.05 23.1917 33.7333 21.0833 36.4167 21.0833C39.1 21.0833 41.7833 23.1917 41.7833 25.875V26.8333H39.2917V25.875C39.2917 24.3417 37.95 23.3833 36.4167 23.3833C34.8833 23.3833 33.5417 24.3417 33.5417 25.875V30.6667H41.7833ZM3.83334 11.5H38.3333V17.4417L36.4167 17.25C34.845 17.25 33.3692 17.6333 32.0658 18.285C31.2033 17.595 30.6667 16.5217 30.6667 15.3333H11.5C11.5 17.4608 9.79418 19.1667 7.66668 19.1667V26.8333C8.68334 26.8333 9.65836 27.2372 10.3773 27.9561C11.0961 28.675 11.5 29.65 11.5 30.6667H24.9933L24.9167 31.625V34.5H3.83334V11.5ZM21.0833 17.25C24.265 17.25 26.8333 19.8183 26.8333 23C26.8333 26.1817 24.265 28.75 21.0833 28.75C17.9017 28.75 15.3333 26.1817 15.3333 23C15.3333 19.8183 17.9017 17.25 21.0833 17.25Z" fill="#F8F8F8"/>
</svg>
