<svg width="46" height="41" viewBox="0 0 46 41" fill="none" xmlns="http://www.w3.org/2000/svg">
<path d="M24.6771 8.48828C25.5875 7.92773 26.1944 6.91074 26.1944 5.76562C26.1944 3.9959 24.7649 2.5625 23 2.5625C21.2351 2.5625 19.8056 3.9959 19.8056 5.76562C19.8056 6.91875 20.4125 7.92773 21.3229 8.48828L16.7469 17.6652C16.0201 19.1227 14.1354 19.5391 12.8656 18.5221L5.75 12.8125C6.14931 12.276 6.38889 11.6113 6.38889 10.8906C6.38889 9.1209 4.95937 7.6875 3.19444 7.6875C1.42951 7.6875 0 9.1209 0 10.8906C0 12.6604 1.42951 14.0938 3.19444 14.0938H3.25035L6.9 34.2254C7.33924 36.6598 9.45555 38.4375 11.9312 38.4375H34.0688C36.5365 38.4375 38.6528 36.6678 39.1 34.2254L42.7497 14.0938H42.8056C44.5705 14.0938 46 12.6604 46 10.8906C46 9.1209 44.5705 7.6875 42.8056 7.6875C41.0406 7.6875 39.6111 9.1209 39.6111 10.8906C39.6111 11.6113 39.8507 12.276 40.25 12.8125L33.1344 18.5221C31.8646 19.5391 29.9799 19.1227 29.2531 17.6652L24.6771 8.48828Z" fill="#F8F8F8"/>
</svg>
