<svg width="82" height="82" viewBox="0 0 82 82" fill="none" xmlns="http://www.w3.org/2000/svg">
<path d="M79.2786 56.6261L73.6488 28.3041C72.4111 21.7133 66.748 16.7254 59.9215 16.6614V16.6563H22.213C15.3263 16.6537 9.58887 21.6711 8.3435 28.3067L2.72265 56.6261C2.61759 57.1258 2.55609 57.6383 2.5625 58.17C2.55609 62.1317 5.71565 65.3438 9.6145 65.3438C12.1283 65.3438 14.3333 64.0125 15.5864 62.0035L24.8627 50.4223C26.3904 51.873 28.4164 52.6824 30.5232 52.6837C35.1075 52.6812 38.8244 48.9053 38.8244 44.239L43.3088 44.2377C43.3088 48.9002 47.0296 52.6812 51.6139 52.6812C53.6822 52.681 55.6745 51.9015 57.1937 50.4979L66.4123 62.0035C67.6641 64.0074 69.8717 65.3438 72.3791 65.3438C76.2779 65.3438 79.4413 62.1317 79.4375 58.1675C79.4384 57.6496 79.3852 57.133 79.2786 56.6261ZM26.805 27.1446C27.7058 26.2272 28.7346 26.495 29.0972 27.7403L29.0921 31.7455C28.7346 32.9922 27.7058 33.2613 26.8076 32.3452L25.8864 31.4098C25.4531 30.9637 25.2107 30.3662 25.2107 29.7442C25.2107 29.1223 25.4531 28.5248 25.8864 28.0786L26.805 27.1446ZM20.2489 22.7537L24.1849 22.7499C25.4085 23.1112 25.6711 24.1618 24.7678 25.0779L23.8556 26.0107C23.6416 26.2285 23.3864 26.4016 23.1048 26.5197C22.8233 26.6379 22.521 26.6987 22.2156 26.6987C21.9102 26.6987 21.6079 26.6379 21.3264 26.5197C21.0448 26.4016 20.7895 26.2285 20.5756 26.0107L19.6557 25.0766C18.7537 24.1605 19.0163 23.1112 20.2489 22.7537ZM17.6262 32.3413C16.7229 33.2613 15.6902 32.9922 15.3327 31.7455L15.3378 27.7403C15.6902 26.4937 16.7229 26.2259 17.6236 27.1433L18.541 28.0773C18.9749 28.5232 19.2177 29.1208 19.2177 29.7429C19.2177 30.3651 18.9749 30.9627 18.541 31.4086L17.6262 32.3413ZM24.1849 36.7347L20.2437 36.7386C19.0163 36.3721 18.7537 35.3279 19.6569 34.4105L20.5769 33.4765C20.7908 33.2589 21.0459 33.086 21.3273 32.968C21.6087 32.85 21.9108 32.7891 22.216 32.789C22.5211 32.7889 22.8233 32.8495 23.1047 32.9673C23.3862 33.0851 23.6415 33.2578 23.8556 33.4752L24.7717 34.4105C25.6711 35.3279 25.4059 36.3721 24.1849 36.7347ZM30.5168 49.8906C27.4469 49.8932 24.9523 47.3627 24.9523 44.2364C24.9523 41.1128 27.4469 38.5784 30.5232 38.5784C33.5918 38.5823 36.0826 41.1128 36.0826 44.2352C36.0864 47.364 33.5918 49.8957 30.5168 49.8906ZM56.4788 25.0267C57.7549 25.0292 58.7914 26.0837 58.7914 27.3829C58.794 28.6885 57.7575 29.7455 56.4737 29.7391C55.1924 29.7429 54.1559 28.6885 54.1559 27.3854C54.1572 26.0837 55.1924 25.0292 56.4788 25.0267ZM51.6139 49.8932C48.544 49.8932 46.0533 47.3601 46.0507 44.2364C46.0533 41.1128 48.5427 38.5784 51.6139 38.5784C54.6902 38.581 57.1822 41.1128 57.1796 44.2364C57.1796 47.3601 54.6914 49.8906 51.6139 49.8932ZM56.6915 36.8142C55.4102 36.8142 54.3724 35.7558 54.3724 34.4554C54.3711 33.1523 55.4102 32.0966 56.6915 32.0966C57.9727 32.0966 59.008 33.1523 59.0118 34.4554C59.0118 35.7571 57.9702 36.8142 56.6915 36.8142ZM63.1554 22.673C64.4353 22.6717 65.4732 23.7262 65.4757 25.0292C65.4732 26.3284 64.4353 27.3854 63.1554 27.3854C61.8741 27.3854 60.8376 26.3284 60.8376 25.0292C60.835 23.7249 61.869 22.6679 63.1554 22.673ZM63.3706 34.4567C62.0919 34.4579 61.0541 33.4035 61.058 32.1017C61.0541 30.7987 62.0919 29.7417 63.3732 29.7455C64.6519 29.7429 65.6923 30.7961 65.6923 32.0979C65.691 33.4022 64.6519 34.4579 63.3706 34.4567Z" fill="#F8F8F8"/>
</svg>
