<svg width="43" height="43" viewBox="0 0 43 43" fill="none" xmlns="http://www.w3.org/2000/svg">
<g clip-path="url(#clip0_1_57)">
<path d="M43 6.71875C43 8.23047 41.799 9.62461 39.775 10.75C37.3311 12.1021 33.6861 13.0596 29.5037 13.3451C29.193 13.1939 28.8822 13.0512 28.5547 12.9252C25.2457 11.5395 20.8449 10.75 16.125 10.75C15.4279 10.75 14.7477 10.7668 14.0674 10.8004L13.975 10.75C11.951 9.62461 10.75 8.23047 10.75 6.71875C10.75 3.00664 17.9727 0 26.875 0C35.7773 0 43 3.00664 43 6.71875ZM13.4963 13.5299C14.3529 13.4711 15.2348 13.4375 16.125 13.4375C21.3488 13.4375 25.9848 14.4705 28.9326 16.0746C31.0154 17.2084 32.25 18.6193 32.25 20.1562C32.25 20.4922 32.1912 20.8197 32.0736 21.1389C31.6873 22.2475 30.6459 23.2637 29.1342 24.1203C29.1258 24.1287 29.109 24.1287 29.1006 24.1371C29.0754 24.1539 29.0502 24.1623 29.025 24.1791C26.0855 25.8084 21.3992 26.8666 16.125 26.8666C11.1195 26.8666 6.64316 25.9176 3.67852 24.4227C3.51895 24.3471 3.36777 24.2631 3.2166 24.1791C1.20098 23.0621 0 21.668 0 20.1562C0 17.2336 4.48477 14.7393 10.75 13.8238C11.6318 13.6979 12.5473 13.5971 13.4963 13.5299ZM34.9375 20.1562C34.9375 18.317 34.0473 16.8053 32.9135 15.6715C35.2902 15.302 37.4654 14.7141 39.3131 13.9498C40.682 13.3787 41.9586 12.6732 43 11.8082V14.7812C43 16.4021 41.6143 17.8971 39.3215 19.0561C38.0953 19.6775 36.6004 20.2066 34.9207 20.6098C34.9291 20.4586 34.9375 20.3158 34.9375 20.1646V20.1562ZM32.25 28.2188C32.25 29.7305 31.049 31.1246 29.025 32.25C28.8738 32.334 28.7227 32.4096 28.5631 32.4936C25.6068 33.9885 21.1305 34.9375 16.125 34.9375C10.8508 34.9375 6.16445 33.8793 3.225 32.25C1.20098 31.1246 0 29.7305 0 28.2188V25.2457C1.0498 26.1107 2.31797 26.8162 3.68691 27.3873C7.0043 28.773 11.4051 29.5625 16.125 29.5625C20.8449 29.5625 25.2457 28.773 28.5631 27.3873C29.2182 27.1186 29.848 26.8078 30.4443 26.4719C30.9566 26.1863 31.4354 25.8672 31.8889 25.5312C32.0148 25.4389 32.1324 25.3381 32.25 25.2457V28.2188ZM34.9375 28.2188V23.3561C36.5332 23.0033 38.0029 22.5582 39.3131 22.0123C40.682 21.4412 41.9586 20.7357 43 19.8707V22.8438C43 23.7256 42.5801 24.6074 41.7486 25.4389C40.3797 26.8078 37.9693 27.9332 34.9207 28.6639C34.9291 28.5211 34.9375 28.3699 34.9375 28.2188ZM16.125 37.625C20.8449 37.625 25.2457 36.8355 28.5631 35.4498C29.932 34.8787 31.2086 34.1732 32.25 33.3082V36.2812C32.25 39.9934 25.0273 43 16.125 43C7.22266 43 0 39.9934 0 36.2812V33.3082C1.0498 34.1732 2.31797 34.8787 3.68691 35.4498C7.0043 36.8355 11.4051 37.625 16.125 37.625Z" fill="#F13086"/>
</g>
<defs>
<clipPath id="clip0_1_57">
<rect width="43" height="43" fill="white"/>
</clipPath>
</defs>
</svg>
