<?xml version="1.0" encoding="utf-8"?>
<!-- Generator: Adobe Illustrator 21.1.0, SVG Export Plug-In . SVG Version: 6.00 Build 0)  -->
<svg version="1.1" id="Слой_2" xmlns="http://www.w3.org/2000/svg" xmlns:xlink="http://www.w3.org/1999/xlink" x="0px" y="0px"
	 viewBox="0 0 23 24" style="enable-background:new 0 0 23 24;" xml:space="preserve">
<style type="text/css">
	.st0{fill:#BB280F;}
</style>
<rect x="1" y="9.5" class="st0" width="9" height="4"/>
<rect x="11" y="9.5" class="st0" width="5" height="14"/>
<rect x="2" y="14.5" class="st0" width="8" height="9"/>
<rect x="17" y="14.5" class="st0" width="4" height="9"/>
<rect x="17" y="9.5" class="st0" width="5" height="4"/>
<circle class="st0" cx="13.5" cy="9" r="1.5"/>
<g>
	<path class="st0" d="M15.5,6c0.3-1.4,0.7-2.9,1.9-3.9c0.6-0.5,1.5-0.8,2.3-0.7c0.8,0.1,1.6,0.7,2,1.4c0.5,0.7,0.6,1.6,0.4,2.4
		C22,6,21.4,6.7,20.8,7.1c-1.3,0.8-2.8,1-4.3,0.9c1.4-0.3,2.8-0.8,3.8-1.6c0.5-0.4,0.9-0.9,1-1.5c0.1-0.6,0-1.2-0.3-1.6
		c-0.3-0.5-0.8-0.8-1.4-1c-0.6-0.1-1.2,0-1.7,0.4c-0.5,0.3-1,0.9-1.4,1.4C16.1,4.7,15.8,5.4,15.5,6z"/>
</g>
<g>
	<path class="st0" d="M12.5,6c0-1.3-0.4-2.6-1.2-3.4c-0.9-0.7-2.2-0.9-3.1-0.4C7.7,2.5,7.5,2.8,7.6,3.3c0.1,0.5,0.5,1,0.9,1.4
		c0.9,0.9,2,1.6,3.1,2.3C10.2,6.6,9,6.1,7.9,5.3c-0.5-0.4-1.1-1-1.3-1.8C6.5,3.1,6.6,2.6,6.8,2.2C7,1.8,7.3,1.5,7.7,1.3
		c1.4-0.7,3.1-0.3,4.1,0.7c0.5,0.5,0.8,1.2,0.9,1.9C12.7,4.7,12.7,5.4,12.5,6z"/>
</g>
</svg>
