<?xml version="1.0" encoding="utf-8"?>
<!-- Generator: Adobe Illustrator 21.1.0, SVG Export Plug-In . SVG Version: 6.00 Build 0)  -->
<svg version="1.1" id="Слой_1" xmlns="http://www.w3.org/2000/svg" xmlns:xlink="http://www.w3.org/1999/xlink" x="0px" y="0px"
	 viewBox="0 0 140 90" style="enable-background:new 0 0 140 90;" xml:space="preserve">
<path d="M43,5.4c-5.9,0-10.8,4.9-10.8,10.8v58L70,85.6l37.8-11.3v-1.3V16.2c0-5.9-4.9-10.8-10.8-10.8H43z M43,9h54
	c4,0,7.2,3.2,7.2,7.2v55.4L70,81.8L35.8,71.6V16.2C35.8,12.2,39,9,43,9z M44.8,14.4c-3,0-5.4,2.4-5.4,5.4v30.6c0,3,2.4,5.4,5.4,5.4
	H52v-5.4h-7.2V37.8h5.4v-5.4h-5.4V19.8H52v-5.4H44.8z M55.6,14.4v41.4H61v-18h5.4c3,0,5.4-2.4,5.4-5.4V19.8c0-3-2.4-5.4-5.4-5.4
	H55.6z M75.4,14.4v41.4h5.4V14.4H75.4z M89.8,14.4c-3,0-5.4,2.4-5.4,5.4v30.6c0,3,2.4,5.4,5.4,5.4h5.4c3,0,5.4-2.4,5.4-5.4v-7.2
	h-5.4v7.2h-5.4V19.8h5.4V27h5.4v-7.2c0-3-2.4-5.4-5.4-5.4H89.8z M61,19.8h5.4v12.6H61V19.8z M41.2,59.4c-1,0-1.8,0.8-1.8,1.8v7.2
	c0,1,0.8,1.8,1.8,1.8h7.2c1,0,1.8-0.8,1.8-1.8v-3.6h-3.6v1.8h1.8v1.3c0,0.2-0.2,0.5-0.4,0.5h-6.3c-0.2,0-0.4-0.2-0.4-0.5v-6.3
	c0-0.2,0.2-0.5,0.4-0.5H48c0.2,0,0.4,0.2,0.4,0.5V63h1.8v-1.8c0-1-0.8-1.8-1.8-1.8H41.2z M57.4,59.4L52,70.2h1.8l0.9-1.8h7.2
	l0.9,1.8h1.8l-5.4-10.8H57.4z M66.4,59.4v10.8h1.8V63l2.7,5.4h1.8l2.7-5.4v7.2h1.8V59.4h-1.8l-3.6,7.2l-3.6-7.2H66.4z M79,59.4v1.8
	v7.2v1.8h1.8H88v-1.8h-7.2v-2.7h3.6v-1.8h-3.6v-2.7H88v-1.8h-7.2H79z M91.6,59.4c-1,0-1.8,0.8-1.8,1.8v2.7c0,1,0.8,1.8,1.8,1.8h6.8
	c0.2,0,0.4,0.2,0.4,0.5v1.8c0,0.2-0.2,0.5-0.4,0.5H92c-0.2,0-0.4-0.2-0.4-0.5v-0.4h-1.8v0.9c0,1,0.8,1.8,1.8,1.8h7.2
	c1,0,1.8-0.8,1.8-1.8v-2.7c0-1-0.8-1.8-1.8-1.8H92c-0.2,0-0.4-0.2-0.4-0.5v-1.8c0-0.2,0.2-0.5,0.4-0.5h6.3c0.2,0,0.4,0.2,0.4,0.5
	v0.5h1.8v-0.9c0-1-0.8-1.8-1.8-1.8H91.6z M58.3,61.2l2.7,5.4h-5.4L58.3,61.2z"/>
</svg>
