<svg width="48" height="48" viewBox="0 0 48 48" fill="none" xmlns="http://www.w3.org/2000/svg">
<g clip-path="url(#clip0_11_27)">
<path d="M22.971 18.741C23.301 17.751 24.699 17.751 25.029 18.741L26.964 24.552C27.3899 25.8294 28.1075 26.99 29.0599 27.9419C30.0123 28.8938 31.1734 29.6108 32.451 30.036L38.259 31.971C39.249 32.301 39.249 33.699 38.259 34.029L32.448 35.964C31.1706 36.3899 30.0099 37.1075 29.0581 38.0599C28.1062 39.0123 27.3892 40.1734 26.964 41.451L25.029 47.259C24.9578 47.4758 24.8201 47.6646 24.6353 47.7984C24.4505 47.9322 24.2282 48.0043 24 48.0043C23.7718 48.0043 23.5495 47.9322 23.3647 47.7984C23.1799 47.6646 23.0421 47.4758 22.971 47.259L21.036 41.448C20.6104 40.1709 19.8932 39.0105 18.9414 38.0586C17.9895 37.1068 16.8291 36.3896 15.552 35.964L9.741 34.029C9.52421 33.9579 9.33544 33.8201 9.2016 33.6353C9.06776 33.4505 8.99571 33.2282 8.99571 33C8.99571 32.7718 9.06776 32.5495 9.2016 32.3647C9.33544 32.1799 9.52421 32.0421 9.741 31.971L15.552 30.036C16.8291 29.6104 17.9895 28.8932 18.9414 27.9414C19.8932 26.9895 20.6104 25.8291 21.036 24.552L22.971 18.741ZM11.382 3.44399C11.425 3.31408 11.5079 3.20102 11.6188 3.12089C11.7298 3.04076 11.8631 2.99763 12 2.99763C12.1368 2.99763 12.2702 3.04076 12.3812 3.12089C12.4921 3.20102 12.575 3.31408 12.618 3.44399L13.779 6.92999C14.298 8.48399 15.516 9.70199 17.07 10.221L20.556 11.382C20.6859 11.425 20.799 11.5079 20.8791 11.6188C20.9592 11.7298 21.0024 11.8631 21.0024 12C21.0024 12.1368 20.9592 12.2702 20.8791 12.3812C20.799 12.4921 20.6859 12.575 20.556 12.618L17.07 13.779C16.3036 14.0343 15.6072 14.4647 15.0359 15.0359C14.4647 15.6072 14.0343 16.3036 13.779 17.07L12.618 20.556C12.575 20.6859 12.4921 20.799 12.3812 20.8791C12.2702 20.9592 12.1368 21.0024 12 21.0024C11.8631 21.0024 11.7298 20.9592 11.6188 20.8791C11.5079 20.799 11.425 20.6859 11.382 20.556L10.221 17.07C9.96565 16.3036 9.5353 15.6072 8.96407 15.0359C8.39284 14.4647 7.69642 14.0343 6.93 13.779L3.444 12.618C3.31408 12.575 3.20102 12.4921 3.12089 12.3812C3.04076 12.2702 2.99763 12.1368 2.99763 12C2.99763 11.8631 3.04076 11.7298 3.12089 11.6188C3.20102 11.5079 3.31408 11.425 3.444 11.382L6.93 10.221C7.69642 9.96565 8.39284 9.5353 8.96407 8.96407C9.5353 8.39284 9.96565 7.69642 10.221 6.92999L11.382 3.44399ZM32.589 0.296994C32.6186 0.211573 32.6741 0.137502 32.7478 0.0850788C32.8214 0.0326558 32.9096 0.00448608 33 0.00448608C33.0904 0.00448608 33.1786 0.0326558 33.2522 0.0850788C33.3259 0.137502 33.3814 0.211573 33.411 0.296994L34.185 2.61899C34.53 3.65699 35.343 4.46999 36.381 4.81499L38.703 5.58899C38.7884 5.61861 38.8625 5.6741 38.9149 5.74776C38.9673 5.82142 38.9955 5.90958 38.9955 5.99999C38.9955 6.0904 38.9673 6.17857 38.9149 6.25223C38.8625 6.32588 38.7884 6.38138 38.703 6.411L36.381 7.18499C35.8695 7.35516 35.4046 7.64224 35.0234 8.02344C34.6422 8.40464 34.3552 8.86946 34.185 9.381L33.411 11.703C33.3814 11.7884 33.3259 11.8625 33.2522 11.9149C33.1786 11.9673 33.0904 11.9955 33 11.9955C32.9096 11.9955 32.8214 11.9673 32.7478 11.9149C32.6741 11.8625 32.6186 11.7884 32.589 11.703L31.815 9.381C31.6448 8.86946 31.3577 8.40464 30.9765 8.02344C30.5953 7.64224 30.1305 7.35516 29.619 7.18499L27.3 6.411C27.2146 6.38138 27.1405 6.32588 27.0881 6.25223C27.0357 6.17857 27.0075 6.0904 27.0075 5.99999C27.0075 5.90958 27.0357 5.82142 27.0881 5.74776C27.1405 5.6741 27.2146 5.61861 27.3 5.58899L29.622 4.81499C30.66 4.46999 31.473 3.65699 31.818 2.61899L32.589 0.299994V0.296994Z" fill="white"/>
</g>
<defs>
<clipPath id="clip0_11_27">
<rect width="48" height="48" fill="white"/>
</clipPath>
</defs>
</svg>
