<svg width="82" height="61" viewBox="0 0 82 61" fill="none" xmlns="http://www.w3.org/2000/svg">
<path d="M59.5136 25.2458H48.935C47.8829 25.2458 46.8739 24.8275 46.13 24.0829C45.386 23.3382 44.9681 22.3283 44.9681 21.2753C44.9681 20.2222 45.386 19.2123 46.13 18.4677C46.8739 17.7231 47.8829 17.3048 48.935 17.3048H59.5136C60.5657 17.3048 61.5747 17.7231 62.3186 18.4677C63.0626 19.2123 63.4805 20.2222 63.4805 21.2753C63.4805 22.3283 63.0626 23.3382 62.3186 24.0829C61.5747 24.8275 60.5657 25.2458 59.5136 25.2458ZM33.0672 17.3048H31.7449V15.9813C31.7449 14.9282 31.3269 13.9183 30.583 13.1737C29.839 12.4291 28.83 12.0108 27.7779 12.0108C26.7258 12.0108 25.7168 12.4291 24.9729 13.1737C24.2289 13.9183 23.811 14.9282 23.811 15.9813V17.3048H22.4886C21.4365 17.3048 20.4275 17.7231 19.6836 18.4677C18.9396 19.2123 18.5217 20.2222 18.5217 21.2753C18.5217 22.3283 18.9396 23.3382 19.6836 24.0829C20.4275 24.8275 21.4365 25.2458 22.4886 25.2458H23.811V26.5693C23.811 27.6223 24.2289 28.6322 24.9729 29.3769C25.7168 30.1215 26.7258 30.5398 27.7779 30.5398C28.83 30.5398 29.839 30.1215 30.583 29.3769C31.3269 28.6322 31.7449 27.6223 31.7449 26.5693V25.2458H33.0672C34.1193 25.2458 35.1283 24.8275 35.8723 24.0829C36.6162 23.3382 37.0342 22.3283 37.0342 21.2753C37.0342 20.2222 36.6162 19.2123 35.8723 18.4677C35.1283 17.7231 34.1193 17.3048 33.0672 17.3048ZM71.0839 60.7818C70.3194 60.9121 69.5453 60.9785 68.7698 60.9803C65.2646 60.9687 61.9045 59.5783 59.4144 57.1091L59.2161 56.8775L46.1912 42.4182H35.8441L22.7862 56.9106L22.5878 57.1091C20.5989 59.106 18.0247 60.4149 15.2405 60.8451C12.4563 61.2752 9.60756 60.8041 7.10956 59.5005C4.61157 58.1968 2.59484 56.1287 1.35332 53.5976C0.111801 51.0665 -0.289617 48.2046 0.207573 45.4292V45.363L5.59602 17.6687V17.6026C6.441 12.6861 9.00091 8.22904 12.8204 5.02407C16.64 1.8191 21.4715 0.0740389 26.4556 0.0992624L55.5466 0C60.4973 0.00964002 65.2889 1.75125 69.0921 4.92345C72.8953 8.09564 75.4709 12.4988 76.3732 17.371V17.4371L81.7947 45.3961C82.4105 48.8577 81.6284 52.4224 79.6201 55.3073C77.6118 58.1921 74.5416 60.1611 71.0839 60.7818ZM55.5466 34.411C59.0536 34.411 62.417 33.0166 64.8968 30.5346C67.3767 28.0525 68.7698 24.6862 68.7698 21.176C68.7698 17.6659 67.3767 14.2995 64.8968 11.8175C62.417 9.33541 59.0536 7.94101 55.5466 7.94101L26.4556 8.04027C23.3718 8.03459 20.3836 9.11054 18.0101 11.0811C15.6366 13.0517 14.028 15.7924 13.4638 18.8268C13.4367 18.9008 13.4254 18.9798 13.4308 19.0584L8.00926 46.852C7.82059 47.9524 7.98437 49.0844 8.47719 50.0861C8.97001 51.0877 9.76662 51.9078 10.7531 52.429C11.7397 52.9503 12.8656 53.146 13.9699 52.9882C15.0743 52.8304 16.1005 52.3271 16.9018 51.5504L31.1168 35.8338C31.4845 35.416 31.9373 35.0817 32.4448 34.8534C32.9522 34.6251 33.5026 34.5082 34.0589 34.5103L55.5466 34.411ZM73.993 46.852L71.6789 34.8743C69.8368 37.064 67.5671 38.8539 65.0089 40.1341C62.4508 41.4143 59.6583 42.1578 56.8028 42.319L65.1004 51.5504C65.9018 52.3271 66.928 52.8304 68.0323 52.9882C69.1367 53.146 70.2626 52.9503 71.2491 52.429C72.2356 51.9078 73.0322 51.0877 73.525 50.0861C74.0179 49.0844 74.1816 47.9524 73.993 46.852Z" fill="#FFA800"/>
</svg>
