<svg width="70" height="66" viewBox="0 0 70 66" fill="none" xmlns="http://www.w3.org/2000/svg">
<path d="M44.6667 21.3333C42.0667 20.66 38.4467 19.6666 35.55 19.6666C21.2533 19.6666 9.66666 28.56 9.66666 39.5266C9.66666 45.83 13.4933 51.45 19.46 55.0866L17.8433 60.42C17.7528 60.7188 17.7335 61.0346 17.7869 61.3422C17.8403 61.6498 17.965 61.9406 18.1509 62.1913C18.3369 62.4421 18.579 62.6458 18.8578 62.7863C19.1366 62.9267 19.4445 62.9999 19.7567 63H25.6367C26.0694 63 26.4905 62.8596 26.8367 62.6L31.4867 59.11H39.61L44.26 62.6C44.6062 62.8596 45.0273 63 45.46 63H51.34C51.6522 62.9999 51.96 62.9267 52.2388 62.7863C52.5177 62.6458 52.7598 62.4421 52.9457 62.1913C53.1317 61.9406 53.2564 61.6498 53.3098 61.3422C53.3632 61.0346 53.3439 60.7188 53.2533 60.42L51.6367 55.0866C55.1933 52.92 57.9867 50.05 59.6667 46.75M44.6667 21.3333L59.6667 16.3333L59.3867 28.4266L66.3333 31.3333V43L59.9133 46.3333" stroke="#FFA800" stroke-width="5.5" stroke-linecap="round" stroke-linejoin="round"/>
<path d="M48 36.3333C47.558 36.3333 47.1341 36.1577 46.8215 35.8452C46.5089 35.5326 46.3333 35.1087 46.3333 34.6667C46.3333 34.2246 46.5089 33.8007 46.8215 33.4882C47.1341 33.1756 47.558 33 48 33C48.442 33 48.866 33.1756 49.1785 33.4882C49.4911 33.8007 49.6667 34.2246 49.6667 34.6667C49.6667 35.1087 49.4911 35.5326 49.1785 35.8452C48.866 36.1577 48.442 36.3333 48 36.3333Z" fill="#FFA800" stroke="#FFA800" stroke-width="5.5" stroke-linecap="round" stroke-linejoin="round"/>
<path d="M3 26.3333C3 26.3333 3 34.3333 9.66667 36.3333" stroke="#FFA800" stroke-width="5.5" stroke-linecap="round" stroke-linejoin="round"/>
<path d="M39 18.8433C39.4333 17.6033 39.6667 16.27 39.6667 14.8833C39.6667 8.32 34.4433 3 28 3C21.5567 3 16.3333 8.32 16.3333 14.8833C16.3333 18.02 17.5267 20.8767 19.48 23" stroke="#FFA800" stroke-width="5.5" stroke-linejoin="round"/>
</svg>
