<svg width="50" height="50" viewBox="0 0 50 50" fill="none" xmlns="http://www.w3.org/2000/svg">
                    <path d="M48.25 20.2C47.5475 19.3566 46.6685 18.6777 45.675 18.2112C44.6814 17.7446 43.5976 17.5019 42.5 17.5H31.1L32.5 13.925C33.0823 12.3597 33.2763 10.6765 33.0652 9.01979C32.8541 7.36308 32.2442 5.7823 31.288 4.41306C30.3317 3.04382 29.0576 1.92698 27.5749 1.15835C26.0921 0.389714 24.4451 -0.00777064 22.775 -1.05922e-05C22.2941 0.000992812 21.8237 0.140677 21.4202 0.402296C21.0167 0.663915 20.6972 1.03636 20.5 1.47499L13.375 17.5H7.5C5.51088 17.5 3.60322 18.2902 2.1967 19.6967C0.790177 21.1032 0 23.0109 0 25V42.5C0 44.4891 0.790177 46.3968 2.1967 47.8033C3.60322 49.2098 5.51088 50 7.5 50H39.325C41.0795 49.9994 42.7783 49.3837 44.1258 48.26C45.4733 47.1364 46.3842 45.5759 46.7 43.85L49.875 26.35C50.0714 25.2684 50.0276 24.1569 49.7468 23.0942C49.466 22.0314 48.955 21.0434 48.25 20.2ZM12.5 45H7.5C6.83696 45 6.20107 44.7366 5.73223 44.2678C5.26339 43.7989 5 43.163 5 42.5V25C5 24.3369 5.26339 23.7011 5.73223 23.2322C6.20107 22.7634 6.83696 22.5 7.5 22.5H12.5V45ZM45 25.45L41.825 42.95C41.7185 43.5324 41.4088 44.0581 40.951 44.4335C40.4932 44.8089 39.917 45.0096 39.325 45H17.5V20.525L24.3 5.22499C25 5.42905 25.65 5.77601 26.2091 6.24395C26.7683 6.71189 27.2243 7.29066 27.5485 7.94372C27.8727 8.59679 28.058 9.30996 28.0926 10.0382C28.1273 10.7665 28.0107 11.4941 27.75 12.175L26.425 15.75C26.1427 16.5056 26.0474 17.3184 26.1472 18.1188C26.247 18.9193 26.539 19.6837 26.9983 20.3468C27.4576 21.01 28.0705 21.5522 28.7848 21.9271C29.499 22.302 30.2933 22.4986 31.1 22.5H42.5C42.8673 22.4994 43.2302 22.5797 43.5629 22.7353C43.8956 22.8908 44.1899 23.1178 44.425 23.4C44.6658 23.6783 44.8422 24.0063 44.9416 24.3607C45.041 24.7151 45.061 25.087 45 25.45Z" fill="#393939"></path>
                  </svg>