<svg width="53" height="53" viewBox="0 0 53 53" fill="none" xmlns="http://www.w3.org/2000/svg">
<path fill-rule="evenodd" clip-rule="evenodd" d="M51.5266 24.8066C49.1893 11.7527 43.9635 7.9023 41.1837 7.9023C36.8456 7.9023 35.7326 11.1273 26.5 11.236C17.2674 11.1273 16.1544 7.9023 11.8163 7.9023C9.0365 7.9023 3.80805 11.7527 1.47075 24.8066C0.137799 32.2584 -1.3091 43.3831 2.13855 44.7188C6.4289 46.3803 7.88375 42.2251 12.5954 38.7138C17.3787 35.1549 19.6736 34.3175 26.5 34.3175C33.3264 34.3175 35.6213 35.1549 40.4045 38.7138C45.1162 42.2225 46.5711 46.3803 50.8615 44.7188C54.3091 43.3831 52.8622 32.2611 51.5266 24.8066ZM15.9 26.5C14.4944 26.5 13.1463 25.9416 12.1523 24.9477C11.1584 23.9537 10.6 22.6056 10.6 21.2C10.6 19.7943 11.1584 18.4463 12.1523 17.4523C13.1463 16.4584 14.4944 15.9 15.9 15.9C17.3056 15.9 18.6537 16.4584 19.6477 17.4523C20.6416 18.4463 21.2 19.7943 21.2 21.2C21.2 22.6056 20.6416 23.9537 19.6477 24.9477C18.6537 25.9416 17.3056 26.5 15.9 26.5ZM34.45 26.5C33.7472 26.5 33.0731 26.2208 32.5762 25.7238C32.0792 25.2269 31.8 24.5528 31.8 23.85C31.8 23.1472 32.0792 22.4731 32.5762 21.9762C33.0731 21.4792 33.7472 21.2 34.45 21.2C35.1528 21.2 35.8269 21.4792 36.3238 21.9762C36.8208 22.4731 37.1 23.1472 37.1 23.85C37.1 24.5528 36.8208 25.2269 36.3238 25.7238C35.8269 26.2208 35.1528 26.5 34.45 26.5ZM39.75 21.2C39.0472 21.2 38.3731 20.9208 37.8762 20.4238C37.3792 19.9269 37.1 19.2528 37.1 18.55C37.1 17.8472 37.3792 17.1731 37.8762 16.6762C38.3731 16.1792 39.0472 15.9 39.75 15.9C40.4528 15.9 41.1269 16.1792 41.6238 16.6762C42.1208 17.1731 42.4 17.8472 42.4 18.55C42.4 19.2528 42.1208 19.9269 41.6238 20.4238C41.1269 20.9208 40.4528 21.2 39.75 21.2Z" fill="#F8F8F8"/>
</svg>
