<?xml version="1.0" encoding="utf-8"?>
<!-- Generator: Adobe Illustrator 21.1.0, SVG Export Plug-In . SVG Version: 6.00 Build 0)  -->
<svg version="1.1" id="test123" xmlns="http://www.w3.org/2000/svg" xmlns:xlink="http://www.w3.org/1999/xlink" x="0px" y="0px"
	 viewBox="0 0 21 21" style="enable-background:new 0 0 21 21;" xml:space="preserve">
<style type="text/css">
	.st0{fill-rule:evenodd;clip-rule:evenodd;}
</style>
<g>
	<g>
		<path class="st0" d="M12.8,7.8c-0.3-0.4-0.1-0.2-0.5-0.9c-0.5,1,0.4,3.3,0.4,3.6s-0.2,1.6-1.1,0.8c-0.2-0.3-0.9-1.4-0.2-3.4
			c1.4-4.3-1.1-6.1-1.1-6c0.3,0.4,0.4,1.1,0.3,2.4c0,0.8-0.2,1.2-0.4,1.6C9.6,7,8.9,6.5,9.3,5C9,5.5,8.7,6,6.9,7.9
			c-5.6,7.1,2.3,11,2.2,10.8c-1.8-1.9-2-3-1.7-3.8c0.4-0.7,1.4-1.7,1.5-2.3c0.1,0.3,0.4,1.3,0,1.9c-0.5,0.5,1,2.2,1.1-0.2
			c0-0.2-0.2-1-0.3-1.5c-0.1-0.2-0.1-0.3-0.1-0.5c-0.2-1.2,1.2-3.4,0.8-2.4c-0.4,1.2,0,2.5,0.1,2.6c0.1,0.2,2.3,3.2,2.5,0.2
			c0.2-0.1,2,2.6-0.7,6C20.2,14.8,13.1,8.2,12.8,7.8z M9.3,14.6c0,0.1,0,0.2,0,0.3c-0.1,0-0.1,0-0.1,0c-0.2-0.3-0.1-0.4,0-0.6
			c0-0.1,0.1-0.3,0.1-0.4C9.5,14.2,9.4,14.4,9.3,14.6z M10.1,9.3c-1.1,1-1.3-0.4-1.3-0.4s-0.2-0.4-0.7,0C7.8,9.2,5,10.8,6.4,15.5
			c-1.5-3-0.3-5.6,0.8-7.2C8.7,6.2,8.9,6.9,9,7c0.9,0.9,2.1-0.7,2.4-2.7C11.4,4.5,11.7,7.3,10.1,9.3z M13.2,11.4
			c0.5-0.9,0.1-1.8-0.5-2.8C13.5,9.3,14.5,10.6,13.2,11.4z"/>
	</g>
</g>
</svg>
