<?xml version="1.0" encoding="utf-8"?>
<!-- Generator: Adobe Illustrator 21.1.0, SVG Export Plug-In . SVG Version: 6.00 Build 0)  -->
<svg version="1.1" id="Слой_3" xmlns="http://www.w3.org/2000/svg" xmlns:xlink="http://www.w3.org/1999/xlink" x="0px" y="0px"
	 viewBox="0 0 23 24" style="enable-background:new 0 0 23 24;" xml:space="preserve">
<style type="text/css">
	.st0{fill:#BB280F;}
</style>
<path class="st0" d="M9.9,12.5c0,0.6-0.5,1.1-1.1,1.1c-0.6,0-1.1-0.5-1.1-1.1c0-0.6,0.5-1.1,1.1-1.1C9.4,11.4,9.9,11.9,9.9,12.5z
	 M14.2,11.4c-0.6,0-1.1,0.5-1.1,1.1c0,0.6,0.5,1.1,1.1,1.1c0.6,0,1.1-0.5,1.1-1.1C15.3,11.9,14.8,11.4,14.2,11.4z M22,11.9v2
	c0,1-0.8,1.9-1.9,1.9h-1.4c-1.3,3.7-4.8,6-7.3,6s-5.9-2.2-7.3-6H2.9c-1,0-1.9-0.8-1.9-1.9v-2c0-0.7,0.4-1.3,1-1.6
	c0-2.9,0.9-5.2,2.5-6.8c1.6-1.6,4-2.4,7-2.4s5.4,0.8,7,2.3c1.7,1.6,2.5,3.8,2.5,6.8C21.6,10.6,22,11.2,22,11.9z M18.1,12.5
	c0-0.5,0-0.9-0.1-1.4c-0.8-0.8-2.3-1.3-4.2-1.5c0.2,0.3,0.5,0.6,0.6,1.1C13.2,9.8,10.9,10,9.2,8C9.1,7.9,9,7.8,9,7.7c0,0,0,0,0,0
	l0,0C8.6,7.2,8.5,7,8.5,7.3C8.5,9.6,6.8,11.4,5,11.7c0,0.3,0,0.5,0,0.8c0,1,0.2,1.9,0.4,2.7c1,1.3,2.8,1.6,4.3,1.7
	c0.3-0.4,0.9-0.8,1.7-0.8c1,0,1.8,0.6,1.8,1.3c0,0.7-0.8,1.3-1.8,1.3c-0.8,0-1.4-0.3-1.7-0.8c-1.1-0.1-2.2-0.2-3.3-0.7
	c1.5,2.2,3.7,3.3,5.1,3.3C13.7,20.5,18.1,17.7,18.1,12.5z M19.9,10c-0.1-5.1-3-7.8-8.4-7.8S3.2,5,3.1,10h0.7
	c0.3-1.7,0.8-3.1,1.7-4.2c1.3-1.7,3.4-2.6,6-2.6s4.7,0.9,6,2.6c0.8,1.1,1.4,2.5,1.7,4.2H19.9z"/>
</svg>
