<?xml version="1.0" encoding="utf-8"?>
<!-- Generator: Adobe Illustrator 21.1.0, SVG Export Plug-In . SVG Version: 6.00 Build 0)  -->
<svg version="1.1" id="Слой_1" xmlns="http://www.w3.org/2000/svg" xmlns:xlink="http://www.w3.org/1999/xlink" x="0px" y="0px"
	 viewBox="0 0 140 90" style="enable-background:new 0 0 140 90;" xml:space="preserve">
<style type="text/css">
	.st0{fill:#F15A23;}
	.st1{fill:#6D6E70;}
</style>
<g id="_x23_ffffffff">
</g>
<g id="_x23_f15a23ff">
	<path class="st0" d="M21.7,23.3c0.3-0.1,0.7,0,0.7,0.3c0.1,0.3-0.1,0.5-0.2,0.7c-1,1.4-1.6,3-1.9,4.7c-0.2,0.1-0.2,0.3-0.2,0.5
		c0.1,0,0.2,0.1,0.3,0.1c1.9-0.2,3.9-0.1,5.7,0.3c3.4,0.7,6.6,2.4,9.1,4.9c2.5,2.5,4.2,5.6,4.9,9c0.8,3.7,0.3,7.6-1.2,11
		c-3.3,7-8.8,12.9-15.6,16.7c-0.2,0.1-0.5,0.1-0.7-0.1c-0.2-0.2-0.1-0.6,0.1-0.8c0.9-1.3,1.5-2.7,1.9-4.3c0.1-0.3,0.2-0.6,0.1-1
		c-0.1-0.1-0.3-0.1-0.5-0.1c-3.3,0.3-6.7-0.3-9.6-1.7c-3.2-1.5-5.9-4-7.7-7.1c-1.7-2.8-2.5-6.1-2.5-9.3c0-3,0.8-5.9,2.3-8.6
		C10.2,32.2,15.4,26.8,21.7,23.3 M21.5,40.4c-2,0.3-3.8,1.4-4.8,3c-0.7,1.1-1.2,2.5-1.2,3.8c-0.1,1.8,0.7,3.6,1.9,4.9
		c1.1,1.2,2.6,1.9,4.2,2.1c1.6,0.2,3.3-0.2,4.7-1.1c1.4-0.9,2.5-2.3,2.9-3.9c0.9-2.7-0.2-6-2.5-7.7C25.3,40.7,23.4,40.2,21.5,40.4z"
		/>
</g>
<g id="_x23_6d6e70ff">
	<path class="st1" d="M84.1,33.7c1.3-0.4,2.7,0.2,3.4,1.3c0.5,0.8,0.6,1.8,0.4,2.6c-0.3,1.1-1.4,2-2.5,2.2c-1.1,0.2-2.4-0.3-3-1.3
		c-0.7-1-0.8-2.4-0.1-3.4C82.7,34.4,83.4,33.9,84.1,33.7z"/>
	<path class="st1" d="M112.8,33.7c1.4-0.4,3,0.4,3.6,1.8c0.6,1.4,0.1,3.1-1.2,3.9c-0.7,0.5-1.7,0.6-2.5,0.4
		c-0.8-0.2-1.5-0.8-1.9-1.6c-0.5-0.9-0.4-2,0-2.9C111.2,34.5,111.9,33.9,112.8,33.7z"/>
	<path class="st1" d="M54.1,36.8c2.2-0.3,4.5,0.1,6.5,1c1.8,0.8,3.3,2.2,4.3,3.9c1.9,3,2.1,7,0.6,10.2c-0.9,1.8-2.3,3.4-4,4.5
		c-3.2,2-7.3,2.2-10.7,0.7c-2-0.9-3.7-2.4-4.9-4.3c-1.3-2.1-1.7-4.7-1.3-7.2c0.3-2.2,1.4-4.2,3-5.7C49.4,38.2,51.7,37.1,54.1,36.8
		 M54.8,41.9c-1.1,0.2-2.2,0.7-3,1.6c-1.9,2.1-1.9,5.7,0.1,7.7c1,1.1,2.6,1.7,4.1,1.6c1.3-0.1,2.6-0.7,3.4-1.7c2-2.2,1.8-6-0.4-8
		C57.9,42.2,56.3,41.7,54.8,41.9z"/>
	<path class="st1" d="M106.6,40.2c0.2-0.1,0.4-0.2,0.6-0.3c0.2,0.1,0.5,0.2,0.5,0.5c0,4.6,0,9.1,0,13.7c0,1.8-0.3,3.6-1.3,5.1
		c-0.9,1.3-2.3,2.2-3.9,2.7c-2,0.5-4,0.6-6.1,0.4c-1.8-0.2-3.6-0.7-5.2-1.4c-0.3-0.1-0.5-0.4-0.3-0.7c0.4-0.9,0.9-1.9,1.3-2.8
		c0.1-0.3,0.5-0.4,0.8-0.2c1.8,0.9,3.8,1.4,5.8,1.2c1-0.1,2-0.5,2.6-1.3c0.7-0.9,0.7-2,0.7-3.1c-0.9,1-1.9,1.8-3.2,2.1
		c-2,0.5-4.1,0.1-5.8-1c-1.3-0.9-2.3-2.4-2.7-4c-0.3-1.3-0.3-2.7-0.1-4c0.3-1.6,1.2-3.2,2.5-4.2c0.9-0.7,1.9-1.1,3-1.3
		c0.6-0.1,1.3-0.1,1.9-0.1c1.3,0,2.7,0,4,0c0.1,0,0.3,0,0.4,0.1c0.3,0.3,0.6,0.6,0.9,0.9C104.4,41.7,105.5,41,106.6,40.2 M98.1,45.9
		c-0.6,0.2-1.2,0.5-1.6,1c-0.9,1.1-0.9,3,0.1,4.1c1.2,1.3,3.6,1.3,4.8,0c1.1-1.1,1.1-3.1,0-4.3C100.5,45.9,99.2,45.6,98.1,45.9z"/>
	<path class="st1" d="M127.4,41.9c1-0.5,2.2-0.5,3.3-0.4c1.1,0.2,2.2,0.7,3,1.6c0.7,0.8,1,1.8,1.2,2.8c0.1,0.8,0.1,1.7,0.1,2.6
		c0,2.8,0,5.7,0,8.5c0,0.3-0.2,0.7-0.5,0.6c-1.5,0-3,0-4.5,0c-0.3,0-0.6-0.2-0.5-0.5c0-2.7,0-5.3,0-8c0-0.8-0.2-1.6-0.7-2.1
		c-0.9-0.9-2.7-0.7-3.4,0.4c-0.4,0.6-0.4,1.2-0.4,1.9c0,2.6,0,5.2,0,7.8c0,0.2-0.2,0.5-0.4,0.5c-1.5,0-2.9,0-4.4,0
		c-0.2,0-0.4,0-0.6-0.1c-0.2-0.2-0.1-0.5-0.2-0.7c0-4.8,0-9.6,0-14.4c0-0.3,0.2-0.6,0.5-0.6c1.5,0,2.9,0,4.4,0
		c0.3,0,0.6,0.1,0.6,0.4c0,0.6,0,1.2,0,1.8C125.5,43.1,126.4,42.3,127.4,41.9z"/>
	<path class="st1" d="M76.7,42.2c0.7-0.5,1.6-0.7,2.4-0.7c0.3,0,0.6,0.2,0.5,0.5c0,1.6,0,3.2,0,4.8c0,0.4-0.3,0.6-0.6,0.5
		c-1.1,0-2.4,0.4-3.1,1.2c-0.9,1-1.2,2.3-1.2,3.5c0,1.6,0,3.3,0,4.9c0,0.3-0.3,0.6-0.5,0.5c-1.5,0-3,0-4.5,0c-0.3,0-0.5-0.2-0.5-0.5
		c0-5,0-9.9,0-14.9c0-0.3,0.3-0.5,0.6-0.5c1.5,0,2.9,0,4.4,0c0.3,0,0.6,0.2,0.6,0.5c0,0.9,0,1.7,0,2.6
		C75.1,43.9,75.7,42.8,76.7,42.2z"/>
	<path class="st1" d="M82.7,41.8c1.4,0,2.9,0,4.3,0c0.2,0,0.5,0,0.6,0.2c0.2,0.1,0.2,0.3,0.2,0.5c0,4.9,0,9.7,0,14.6
		c0,0.3-0.2,0.6-0.5,0.6c-1.5,0-3.1,0-4.6,0c-0.3,0-0.5-0.3-0.5-0.6c0-4.9,0-9.8,0-14.7C82.1,42.1,82.4,41.8,82.7,41.8z"/>
	<path class="st1" d="M111.1,41.8c1.5,0,3,0,4.5,0c0.3,0,0.7,0.1,0.7,0.5c0,5,0,9.9,0,14.9c0,0.3-0.2,0.5-0.4,0.5
		c-1.5,0-3.1,0-4.6,0c-0.2,0-0.4-0.2-0.5-0.4c-0.1-0.3,0-0.7,0-1c0-4.6,0-9.2,0-13.8C110.7,42.1,110.9,41.8,111.1,41.8z"/>
</g>
</svg>
