<?xml version="1.0" encoding="utf-8"?>
<!-- Generator: Adobe Illustrator 21.1.0, SVG Export Plug-In . SVG Version: 6.00 Build 0)  -->
<svg version="1.1" id="Слой_1" xmlns="http://www.w3.org/2000/svg" xmlns:xlink="http://www.w3.org/1999/xlink" x="0px" y="0px"
	 viewBox="0 0 140 90" style="enable-background:new 0 0 140 90;" xml:space="preserve">
<style type="text/css">
	.st0{fill:#333333;}
</style>
<path class="st0" d="M118.1,34.7c0,4.4-3.6,8-8,8c-4.4,0-8-3.6-8-8c0-4.4,3.6-8,8-8C114.6,26.7,118.2,30.3,118.1,34.7L118.1,34.7z
	 M110.1,19.8c-8.2,0-14.8,6.6-14.9,14.8l-9.3,13.3c-0.4,0-0.8,0-1.1,0c-2,0-4,0.6-5.7,1.6l-42-16.9c-1.1-5.1-5.6-8.7-10.8-8.7
	c-6.1,0-11.1,5-11.1,11.1c0,6.1,5,11.1,11.1,11.1c2,0,4-0.6,5.7-1.6l42,16.9c1.1,5.1,5.6,8.7,10.8,8.7c5.7,0,10.5-4.4,11-10
	l14.3-10.5c8.2,0,14.9-6.6,14.9-14.9c0,0,0,0,0,0c0-8.2-6.6-14.9-14.9-14.9c0,0,0,0,0,0L110.1,19.8L110.1,19.8z M110.1,24.7
	c5.5,0,10,4.5,10,10c0,5.5-4.5,10-10,10c-5.5,0-10-4.5-10-10C100.1,29.2,104.6,24.8,110.1,24.7L110.1,24.7z M26.2,26.7
	c3.1,0,5.8,1.8,7.2,4.3l-4.1-1.6c-3.3-1.2-6.9,0.4-8.2,3.7c-1.3,3.2,0.2,6.9,3.4,8.3l3.4,1.4C27.4,43,26.8,43,26.2,43
	c-4.5,0-8.2-3.6-8.2-8.2c0,0,0,0,0,0C18,30.3,21.6,26.6,26.2,26.7C26.2,26.6,26.2,26.6,26.2,26.7L26.2,26.7L26.2,26.7z M84.7,50.8
	c4.5,0,8.2,3.6,8.2,8.2c0,0,0,0,0,0c0,4.5-3.6,8.2-8.2,8.2c0,0,0,0,0,0c-3,0-5.8-1.7-7.2-4.4c1.3,0.5,2.7,1.1,4,1.6
	c3.3,1.3,7.1-0.3,8.5-3.6c1.3-3.3-0.3-7.1-3.6-8.4c0,0,0,0,0,0L83,51C83.6,50.9,84.2,50.8,84.7,50.8L84.7,50.8L84.7,50.8z"/>
</svg>
