<?xml version="1.0" encoding="utf-8"?>
<!-- Generator: Adobe Illustrator 21.1.0, SVG Export Plug-In . SVG Version: 6.00 Build 0)  -->
<svg version="1.1" id="Слой_1" xmlns="http://www.w3.org/2000/svg" xmlns:xlink="http://www.w3.org/1999/xlink" x="0px" y="0px"
	 viewBox="0 0 140 90" style="enable-background:new 0 0 140 90;" xml:space="preserve">
<path d="M70,0C45.2,0,25,20.2,25,45s20.2,45,45,45s45-20.2,45-45S94.8,0,70,0z M70,3.9c22.7,0,41.1,18.4,41.1,41.1
	S92.7,86.1,70,86.1S28.9,67.7,28.9,45S47.3,3.9,70,3.9z M43.8,21.5c-1.7,0-3.1,1.4-3.1,3.1V36c0,1.7,1.4,3.1,3.1,3.1c0,0,0,0,0,0
	h7.6v-3.9h-5.7c-0.6,0-1.2-0.5-1.2-1.2l0,0v-7.4c0-0.6,0.5-1.2,1.2-1.2h0h7.4c0.6,0,1.2,0.5,1.2,1.2v0v15.3c0,0.6-0.5,1.2-1.2,1.2
	l0,0H40.7V47h14.5c1.7,0,3.1-1.4,3.1-3.1V24.7c0-1.7-1.4-3.1-3.1-3.1l0,0C55.1,21.5,43.8,21.5,43.8,21.5z M64.3,21.5
	c-1.7,0-3.1,1.4-3.1,3.1V36c0,1.7,1.4,3.1,3.1,3.1h11.3c1.7,0,3.1-1.4,3.1-3.1V24.7c0-1.7-1.4-3.1-3.1-3.1
	C75.7,21.5,64.3,21.5,64.3,21.5z M84.9,21.5c-1.7,0-3.1,1.4-3.1,3.1V36c0,1.7,1.4,3.1,3.1,3.1l0,0h7.6v-3.9h-5.7
	c-0.6,0-1.2-0.5-1.2-1.2v-7.4c0-0.6,0.5-1.2,1.2-1.2h7.4c0.6,0,1.2,0.5,1.2,1.2v15.3c0,0.6-0.5,1.2-1.2,1.2H81.7V47h14.5
	c1.7,0,3.1-1.4,3.1-3.1V24.7c0-1.7-1.4-3.1-3.1-3.1C96.2,21.5,84.9,21.5,84.9,21.5z M66.3,25.4h7.4c0.6,0,1.2,0.5,1.2,1.2v0V34
	c0,0.6-0.5,1.2-1.2,1.2l0,0h-7.4c-0.6,0-1.2-0.5-1.2-1.2l0,0v-7.4C65.1,26,65.6,25.4,66.3,25.4C66.3,25.4,66.3,25.4,66.3,25.4z
	 M43.8,50.9c-1.7,0-3.1,1.4-3.1,3.1l0,0v11.3c0,1.7,1.4,3.1,3.1,3.1h11.5v-3.9h-9.6c-0.6,0-1.2-0.5-1.2-1.2V56
	c0-0.6,0.5-1.2,1.2-1.2h0h9.6v-3.9C55.3,50.9,43.8,50.9,43.8,50.9z M61.4,50.9c-1.7,0-3.1,1.4-3.1,3.1v11.3c0,1.7,1.4,3.1,3.1,3.1
	h11.3c1.7,0,3.1-1.4,3.1-3.1V54c0-1.7-1.4-3.1-3.1-3.1C72.7,50.9,61.4,50.9,61.4,50.9z M81.9,50.9c-1.7,0-3.1,1.4-3.1,3.1l0,0v14.5
	h3.9V56c0-0.6,0.5-1.2,1.2-1.2h3.2v13.7H91V56c0-0.6,0.5-1.2,1.2-1.2h3.2v13.7h3.9V50.9H81.9z M63.3,54.8h7.4c0.6,0,1.2,0.5,1.2,1.2
	l0,0v7.4c0,0.6-0.5,1.2-1.2,1.2h-7.4c-0.6,0-1.2-0.5-1.2-1.2V56C62.2,55.3,62.7,54.8,63.3,54.8C63.3,54.8,63.3,54.8,63.3,54.8z"/>
</svg>
