<?xml version="1.0" encoding="utf-8"?>
<!-- Generator: Adobe Illustrator 21.1.0, SVG Export Plug-In . SVG Version: 6.00 Build 0)  -->
<svg version="1.1" id="Слой_1" xmlns="http://www.w3.org/2000/svg" xmlns:xlink="http://www.w3.org/1999/xlink" x="0px" y="0px"
	 viewBox="0 0 140 90" style="enable-background:new 0 0 140 90;" xml:space="preserve">
<style type="text/css">
	.st0{fill:#0288D1;}
	.st1{fill:#01579B;}
</style>
<g id="surface1">
	<path class="st0" d="M99.2,40.3c0,0,6.6,0.3,6.6-3.5c0-5.1-8.8-9.6-8.8-9.6s1.4-2.9,2.2-4.5c0.9-1.6,3.3-8,3.5-9.4
		c0.3-1.8-0.1-2.4-0.1-2.4c-0.6,3.9-7,15.2-7.5,15.6c-6.2-2.9-14.7-3.7-14.7-3.7S72,4.9,64.2,4.9c-7.8,0-7.8,15.1-7.8,15.1
		s-2.2-4.3-5-4.3c-4,0-5.4,6.1-5.4,12.7c-8,0-14.7,1.8-15.3,2c-0.6,0.2-2.5,1.5-1.6,1.4c1.7-0.6,9.9-1.8,17.1-1.2
		c0.4,6.3,4.1,14.5,4.1,14.5s-7.9,11.4-7.9,19.6c0,2.2,0.8,6.4,6.5,6.4c4.7,0,10.2-3.2,11.2-3.7c-0.9,1.3-1.5,3.6-1.5,4.7
		c0,0.5,0.2,1.6,1,2.4c1.3-1.3,2.7-2.7,4.3-4.3c-1.8-0.3-2-1.6-2-2c0-1.2,0.9-2.6,0.9-2.6s4.3-2.9,4.5-3.2l3.1,5.9
		c0,0-3.2,1.9-5.7,1.9c-0.3,0-0.6,0-0.9-0.1c-1.6,1.6-2.9,2.9-4.3,4.3c0.6,0.6,1.6,1.1,3.1,1.1c4.7,0,9.9-3.6,9.9-3.6s5,8.2,9.2,12
		c1.1,1,2.2,1.2,2.2,1.2S80,81,74.4,70.6c5.1-3.2,10.5-10.7,10.5-10.7s0.6,0,5.5,0c7.7,0,18.5-1.6,18.5-7.7
		C109,45.9,99.2,40.2,99.2,40.3L99.2,40.3z M100.1,36.5c0,2.2-2.1,2.2-2.1,2.2l-1.6,0.1l-4.9-2.4c0,0,2.9-4.4,3.5-5.6
		C95.5,31.1,100.1,33.9,100.1,36.5L100.1,36.5z M53.7,20.7c1.1,0,2.3,1.4,2.7,2.6c0,0.8,0.4,5.3,0.4,5.3l-6.6-0.2
		C50.3,22.4,52.6,20.7,53.7,20.7z M53.1,62.1c-3.6,0-4.4-2-4.4-3.8c0-4.1,3.3-9.8,3.3-9.8s3.7,7.7,10.1,11
		C58.9,61.3,56.2,62.1,53.1,62.1z M72.7,67c-1.5-2.7-2.7-5.5-2.7-5.5s6.3,0.4,9.7-3.1c-2.1,1-5.5,2.2-9.4,1.8l17.1-17.9
		c-0.4-0.4-2.2-1.7-2.7-1.9c-2.4,3-12,13.1-20.8,18.2c-11.2-6.1-13.5-24-13.7-27.7l6.1,0.6c0,0-2.3,4.1-2.3,7.1c0,3,0.4,3.2,0.4,3.2
		s-0.1-5.2,3.1-9.2c2.5,13.1,5,19.7,7,23.7c1-0.4,2.9-1.3,2.9-1.3s-5.6-16.2-5.3-27.2c2.2-1.1,4.5-2,6.9-2.4
		c-0.1-0.7-0.2-1.4-0.5-2.1c-2,0.5-4.2,1.2-6.3,2.4c0.2-6.1,2.2-11.7,5.9-11.7c3.6,0,8.7,8.5,8.7,8.5S73,22,68.4,23
		c0.3,0.7,0.5,1.4,0.5,2.1c1.2-0.2,2.4-0.4,3.7-0.4c11.2,0,20.3,4.8,20.3,4.8l-3.5,4.9c0,0-3.2-5.7-7.6-6.7c2.3,1.7,5,4.1,6.3,7.4
		c-9.3-3.6-20.5-5.6-24.2-6c-0.3,1.3-0.3,3.2-0.3,3.2s15.1,2.8,26,9.1C89.7,55.2,74.8,65.8,72.7,67z M87,56.7c0,0,4.7-6.1,4.6-14.3
		c0,0,7.6,4.7,7.6,9.3C99.1,56.8,87,56.7,87,56.7z"/>
	<path class="st1" d="M58.6,72c0-1.1,0.6-3.5,1.5-4.7c1.5-0.7,2.7-1.7,2.7-1.7s-0.9,1.4-0.9,2.6c0,0.3,0.2,1.6,2,2
		c0.3,0,0.5,0.1,0.9,0.1c2.5,0,5.7-1.9,5.7-1.9C60.2,77.6,58.6,72.2,58.6,72z M60.3,55.8l-0.1,0.1L60,56c-0.5,0.3-1.1,0.6-1.7,0.9
		c1.1,1,2.4,1.9,3.7,2.6c0.6-0.3,1.5-0.7,1.9-0.9C62.6,57.7,61.4,56.9,60.3,55.8z M49.8,61.1c-0.8-0.8-1.1-1.8-1.1-2.8
		c0-4.1,3.3-9.8,3.3-9.8l-1.6-3.3C50.4,45.1,42.3,57.3,49.8,61.1C49.8,61.1,49.8,61.2,49.8,61.1z M99,52.6c-1.3,4.2-12,4.1-12,4.1
		l-2,3.2c0,0,0.6,0,4.8,0C89.7,59.9,98.2,59.2,99,52.6z M89.5,45.9c0,0,0.7,0.4,1.6,1.2c0.3-1.4,0.5-3,0.5-4.6
		c-0.4-0.2-1.4-0.8-1.8-1c0,1.4-0.2,2.9-0.5,4.2C89.4,45.8,89.5,45.9,89.5,45.9z M100.1,36.5c0,2.2-2.1,2.2-2.1,2.2l-1.6,0.1
		l2.9,1.5c9.2-0.4,2.1-7.6-4.2-9.5C95.5,31.1,100.1,33.9,100.1,36.5z M66.9,14c0.4-0.1,0.7-0.2,1.1-0.2c3.6,0,8.7,8.5,8.7,8.5
		l3.6,0.2c0,0-0.8-1.8-2.2-4.1C76.3,15.3,70.4,12.2,66.9,14z M53.4,17.3c-3.6-0.4-3.5,9.9-3.1,11c0-6,2.3-7.7,3.5-7.7
		s2.3,1.4,2.7,2.6c-0.1-1.8,0-3.3,0-3.3S55,17.6,53.4,17.3L53.4,17.3z M66.1,25.6c0-0.7,0.1-1.4,0.2-2c-1.4,0.5-2.8,1-4.2,1.8
		c0,0.8,0,1.2,0,2.1c1.1-0.6,2.5-1.2,4-1.7C66.1,25.8,66.1,25.7,66.1,25.6z M72.7,67c-1.5-2.7-2.7-5.5-2.7-5.5s6.3,0.4,9.7-3.1
		c-2.1,1-5.5,2.2-9.4,1.8c-0.8,0.9-1.8,1.5-2.9,2.3l3.1,5.9C70.5,68.3,72.9,66.8,72.7,67L72.7,67z M74.4,70.6
		c0.5-0.3-1.7,1.3-1.7,1.3s4.9,8.2,9.2,12c1.1,1,2.2,1.2,2.2,1.2S79.9,81,74.4,70.6z M102.6,10.7c-0.6,3.9-7,15.2-7.5,15.6
		C94.5,26,97,27.1,97,27.1s1.4-2.9,2.2-4.5c0.9-1.6,3.3-8,3.5-9.4C103,11.3,102.6,10.7,102.6,10.7z M93,29.6l-3.5,4.9
		c0,0-3.2-5.7-7.6-6.7c1.8,1.3,3.7,3,5.2,5.2v0v0c0.4,0.7,0.8,1.4,1.2,2.2c1.8,0.7,3.4,1.3,3.3,1.2c0,0,2.9-4.4,3.5-5.6L93,29.6
		L93,29.6z M56.9,28.6l-6.6-0.2c-0.1,0.7-0.1,1.7-0.1,2.4l6.1,0.6c0,0-2.3,4.1-2.3,7.1c0,3,0.4,3.1,0.4,3.1S54.3,36.9,57,33
		c0,0,0,0,0,0l0,0c0.2-0.2,0.3-0.5,0.5-0.7C57.1,29.9,56.9,28.6,56.9,28.6L56.9,28.6z M46.1,28.5c-8,0-14.7,1.8-15.3,2
		c-0.6,0.2-2.5,1.5-1.6,1.4c1.7-0.6,9.9-1.8,17.1-1.2C46.2,29.9,46.1,29.2,46.1,28.5z"/>
</g>
</svg>
