<svg width="35" height="35" viewBox="0 0 35 35" fill="none" xmlns="http://www.w3.org/2000/svg">
<path d="M30.8656 10.0379C30.8273 9.69336 30.8629 9.32969 30.923 9.01524C31.0324 8.41914 31.4672 7.91055 31.2074 7.28164C31.0406 6.88789 30.7262 6.61172 30.6688 6.17149C30.5621 5.34844 31.1801 4.83985 30.6359 4.06602C30.3105 3.59571 30.502 3.18555 30.398 2.66602C30.3297 2.32422 30.141 2.0043 29.9578 1.71446C29.7062 1.30977 28.577 1.17305 28.1477 1.22774C27.8742 1.26328 27.6063 1.27422 27.3219 1.29063C26.8434 1.32071 26.3184 1.38907 25.9301 1.71719C25.5227 2.06172 25.3203 2.39531 24.8145 2.63867C24.0324 3.01875 23.1383 3.12266 22.3809 3.54922C21.5496 4.01953 21.2133 4.91367 20.4531 5.46055C20.1551 5.67657 19.7859 5.78321 19.4605 5.94453C19.2582 6.04571 19.0668 6.13867 18.8699 6.23985C18.2656 6.54336 17.8664 6.89336 17.4535 7.4293C17.0598 7.93789 16.6441 8.48203 16.0316 8.73906C15.6215 8.91133 15.266 9.17383 14.8641 9.3625C14.2297 9.66055 13.5406 9.98867 12.8734 10.2102C12.2527 10.418 11.807 10.7898 11.2957 11.1973C10.3906 11.9191 9.56484 12.8324 8.81289 13.7074C7.66172 15.0445 6.74024 16.6852 5.98828 18.2766C5.23906 19.8543 4.66758 21.5223 4.38047 23.2504C4.10977 24.8691 4.07422 26.6246 4.80156 28.1367C5.49336 29.575 6.81953 30.7645 8.16211 31.6012C8.91406 32.0688 9.7836 32.4762 10.6367 32.7113C11.5445 32.9629 12.4906 33.0258 13.423 33.1215C14.6316 33.2418 15.7418 33.1324 16.9367 32.982C17.7242 32.8809 18.5445 32.6922 19.2637 32.3531C20.1469 31.9375 21.0492 31.5273 21.7738 30.882C22.6598 30.0918 23.4746 29.2688 24.1992 28.3117C24.8801 27.4148 25.5473 26.4523 26.0695 25.4543C26.4633 24.7051 26.9801 24.0379 27.3766 23.2969C27.732 22.6297 27.9754 21.9105 28.0219 21.1531C28.0902 20.0813 27.7895 18.9711 28.4949 18.0496C29.1676 17.1691 30.3352 16.8629 30.9805 15.966C31.9484 14.6289 32.0988 13.0129 31.4973 11.5145C31.3906 11.2438 31.2266 10.9566 31.0734 10.7051C30.9559 10.5109 30.893 10.2813 30.8656 10.0379Z" fill="#006CA2"/>
<path d="M18.3832 9.41993C20.7129 9.44727 23.059 9.37344 25.3832 9.52383C27.5707 9.66329 29.5012 9.3461 31.2402 10.9293C32.3504 11.9383 32.2301 13.6008 31.9567 14.9406C31.8801 15.3152 31.5957 15.6816 31.3469 15.9606C29.4465 18.0906 25.6676 17.5793 23.1274 18.107C21.3801 18.4707 19.6383 18.9547 18.0414 19.7695C14.9871 21.3281 11.6621 24.0734 13.1988 27.9125C13.6774 29.1102 14.7082 29.9113 15.9688 30.1574C19.5535 30.852 23.0289 28.6453 24.202 25.2246C24.541 24.2266 24.8227 23.182 24.9102 22.1293C24.9703 21.3965 24.6586 20.1059 25.1207 19.4934C25.5445 18.9301 27.3875 18.9547 27.7949 19.4523C28.5059 20.3219 28.4867 22.8785 28.4621 23.9531C28.4293 25.4789 28.0848 27.0047 27.5406 28.4266C26.4359 31.3141 24.2047 33.4578 21.1887 34.3082C14.4566 36.1977 6.18243 32.6758 3.54923 26.0176C0.76837 18.9848 6.8004 12.1106 13.2043 9.88204C14.1285 9.55938 15.1238 9.45 16.1192 9.41719C16.882 9.38985 17.6477 9.41172 18.3832 9.41993ZM20.877 5.82696C19.6109 5.84337 18.4133 6.04844 17.582 6.73477C17.202 7.04922 16.8492 7.24337 16.7016 7.74922C16.666 7.87227 16.5484 8.23594 16.6469 8.35899C16.7836 8.52852 17.1965 8.44102 17.3906 8.44102C17.8418 8.44102 18.2684 8.36993 18.7223 8.37266C21.0711 8.37813 23.4172 8.47383 25.7688 8.45469C27.3465 8.44102 28.927 8.58047 30.502 8.58047C31.5438 8.58047 31.7215 7.64532 31.2074 6.85782C30.5895 5.91719 29.1567 5.96915 28.175 5.89805C25.7824 5.72032 23.2723 5.79688 20.877 5.82696ZM28.607 4.98477C29.1977 5.0504 29.7801 5.16251 30.3434 5.35938C30.4883 5.4086 30.6797 5.55352 30.8219 5.55626C31.0871 5.56172 31.0516 5.14883 31.0406 4.98204C31.0242 4.65938 30.841 4.44883 30.6852 4.17266C30.4746 3.80079 30.182 3.51915 29.7938 3.33594C28.8531 2.89844 27.743 2.85196 26.7258 2.84922C26.5891 2.84922 26.4496 2.85196 26.3129 2.85469C25.55 2.86837 24.7871 2.93126 24.027 3.01329C23.2723 3.09532 22.493 3.24571 21.8942 3.7379C21.6016 3.97852 21.3391 4.29297 21.1559 4.62383C21.0246 4.86719 21.1121 4.99024 21.3719 5.00938C22.2195 5.0668 23.0863 4.99297 23.9395 4.99297C25.457 4.99844 27.0676 4.82071 28.607 4.98477ZM26.8461 2.09727C27.6992 2.01251 28.5934 2.00157 29.4109 2.2504C29.6024 2.30782 29.8375 2.3543 30.0098 2.46641C30.1164 2.53751 30.2996 2.80001 30.4418 2.6168C30.4938 2.55118 30.4609 2.23126 30.4527 2.14376C30.4227 1.89493 30.3844 1.57227 30.2859 1.32618C30.2313 1.19766 30.1356 1.0336 30.0371 0.937896C29.9551 0.8586 29.802 0.825787 29.7363 0.732818C29.5668 0.497662 29.5969 0.199615 29.2277 0.185943C28.9488 0.175006 28.5742 0.278912 28.3227 0.391021C28.0875 0.497662 27.9016 0.697271 27.6473 0.743756C27.0949 0.842193 26.6793 0.981646 26.1953 1.27422C25.9274 1.43829 25.4871 1.83751 25.5254 2.18751C25.8125 2.22305 26.116 2.18477 26.4004 2.14649C26.5453 2.13008 26.6957 2.11094 26.8461 2.09727Z" fill="#40C0E7"/>
<path d="M14.7164 11.5801C11.8672 11.7988 9.45549 13.9945 7.92151 16.2476C7.79846 16.4309 7.68635 16.5922 7.59065 16.7891C7.46213 17.0543 7.3008 17.2977 7.22424 17.5629C7.16682 17.7625 7.16135 17.9019 7.37736 17.9703C7.60158 18.0414 7.72463 17.9047 7.88049 17.757C8.62726 17.0478 9.41816 16.3866 10.2485 15.7773C11.4762 14.8832 12.816 14.1613 14.186 13.516C14.8613 13.1988 15.6844 13.0238 16.2914 12.5891C17.4399 11.7687 15.3918 11.5363 14.8395 11.5691C14.7957 11.5746 14.7547 11.5773 14.7164 11.5801Z" fill="white"/>
</svg>
