<svg width="46" height="46" viewBox="0 0 46 46" fill="none" xmlns="http://www.w3.org/2000/svg">
<path d="M25.9325 42.1667H19.1667C18.6875 42.1667 18.285 41.8217 18.2083 41.3617L17.4992 36.2825C16.2917 35.8033 15.2567 35.1517 14.26 34.385L9.4875 36.3208C9.06583 36.4742 8.54834 36.3208 8.31834 35.8992L4.485 29.2675C4.36769 29.07 4.32634 28.8366 4.36867 28.6108C4.411 28.385 4.53412 28.1824 4.715 28.0408L8.75917 24.8592C8.6825 24.2458 8.625 23.6325 8.625 23C8.625 22.3675 8.6825 21.735 8.75917 21.0833L4.715 17.9592C4.53412 17.8176 4.411 17.615 4.36867 17.3892C4.32634 17.1635 4.36769 16.93 4.485 16.7325L8.31834 10.1008C8.54834 9.67918 9.06583 9.50668 9.4875 9.67918L14.26 11.5958C15.2567 10.8483 16.2917 10.1967 17.4992 9.71751L18.2083 4.63834C18.285 4.17834 18.6875 3.83334 19.1667 3.83334H26.8333C27.3125 3.83334 27.715 4.17834 27.7917 4.63834L28.5008 9.71751C29.7083 10.1967 30.7433 10.8483 31.74 11.5958L36.5125 9.67918C36.9342 9.50668 37.4517 9.67918 37.6817 10.1008L41.515 16.7325C41.745 17.1542 41.6492 17.6717 41.285 17.9592L37.2408 21.0833C37.3175 21.735 37.375 22.3675 37.375 23V23.3642C36.4167 23.1342 35.4583 23 34.5 23C32.7367 23 31.0883 23.4025 29.5933 24.1117C29.6508 23.7475 29.7083 23.3833 29.7083 23C29.7083 19.3008 26.6992 16.2917 23 16.2917C19.3008 16.2917 16.2917 19.3008 16.2917 23C16.2917 26.6992 19.3008 29.7083 23 29.7083C23.3833 29.7083 23.7475 29.6508 24.1117 29.5933C23.1389 31.6345 22.7927 33.9181 23.1168 36.1559C23.4409 38.3937 24.4207 40.4853 25.9325 42.1667ZM30.6667 28.75V40.25L40.25 34.5L30.6667 28.75Z" fill="#F8F8F8"/>
</svg>
