<svg width="53" height="44" viewBox="0 0 53 44" fill="none" xmlns="http://www.w3.org/2000/svg">
<g clip-path="url(#clip0_1_56)">
<path d="M43.725 38.5H9.275C8.54625 38.5 7.95 39.1188 7.95 39.875V42.625C7.95 43.3812 8.54625 44 9.275 44H43.725C44.4538 44 45.05 43.3812 45.05 42.625V39.875C45.05 39.1188 44.4538 38.5 43.725 38.5ZM49.025 11C46.8305 11 45.05 12.8477 45.05 15.125C45.05 15.7352 45.1825 16.3023 45.4144 16.8266L39.4188 20.5562C38.1434 21.3469 36.4955 20.9 35.7584 19.5594L29.0092 7.30469C29.8953 6.54844 30.475 5.41406 30.475 4.125C30.475 1.84766 28.6945 0 26.5 0C24.3055 0 22.525 1.84766 22.525 4.125C22.525 5.41406 23.1047 6.54844 23.9908 7.30469L17.2416 19.5594C16.5045 20.9 14.8483 21.3469 13.5813 20.5562L7.59391 16.8266C7.8175 16.3109 7.95828 15.7352 7.95828 15.125C7.95828 12.8477 6.17781 11 3.98328 11C1.78875 11 0 12.8477 0 15.125C0 17.4023 1.78047 19.25 3.975 19.25C4.19031 19.25 4.40563 19.2156 4.61266 19.1812L10.6 35.75H42.4L48.3873 19.1812C48.5944 19.2156 48.8097 19.25 49.025 19.25C51.2195 19.25 53 17.4023 53 15.125C53 12.8477 51.2195 11 49.025 11Z" fill="#F8F8F8"/>
</g>
<defs>
<clipPath id="clip0_1_56">
<rect width="53" height="44" fill="white"/>
</clipPath>
</defs>
</svg>
