<svg width="53" height="57" viewBox="0 0 53 57" fill="none" xmlns="http://www.w3.org/2000/svg">
<g clip-path="url(#clip0_1_58)">
<path d="M0 45.1213V49.875C0 53.8049 8.90234 57 19.875 57C30.8477 57 39.75 53.8049 39.75 49.875V45.1213C35.4748 48.3609 27.6594 49.875 19.875 49.875C12.0906 49.875 4.2752 48.3609 0 45.1213ZM33.125 14.25C44.0977 14.25 53 11.0549 53 7.125C53 3.19512 44.0977 0 33.125 0C22.1523 0 13.25 3.19512 13.25 7.125C13.25 11.0549 22.1523 14.25 33.125 14.25ZM0 33.443V39.1875C0 43.1174 8.90234 46.3125 19.875 46.3125C30.8477 46.3125 39.75 43.1174 39.75 39.1875V33.443C35.4748 37.2281 27.649 39.1875 19.875 39.1875C12.101 39.1875 4.2752 37.2281 0 33.443ZM43.0625 34.6676C48.9939 33.4318 53 31.1385 53 28.5V23.7463C50.5984 25.5721 47.0686 26.8189 43.0625 27.5871V34.6676ZM19.875 17.8125C8.90234 17.8125 0 21.798 0 26.7188C0 31.6395 8.90234 35.625 19.875 35.625C30.8477 35.625 39.75 31.6395 39.75 26.7188C39.75 21.798 30.8477 17.8125 19.875 17.8125ZM42.576 24.0803C48.7869 22.8779 53 20.5178 53 17.8125V13.0588C49.3252 15.8531 43.0107 17.3561 36.365 17.7123C39.4187 19.3043 41.665 21.4418 42.576 24.0803Z" fill="#F8F8F8"/>
</g>
<defs>
<clipPath id="clip0_1_58">
<rect width="53" height="57" fill="white"/>
</clipPath>
</defs>
</svg>
