<svg width="47" height="47" viewBox="0 0 47 47" fill="none" xmlns="http://www.w3.org/2000/svg">
<path d="M12.7292 39.1667C9.75251 39.1667 7.2132 38.1418 5.11126 36.0921C3.00932 34.0293 1.95834 31.5161 1.95834 28.5525C1.95834 26.0067 2.72209 23.735 4.24959 21.7375C5.79015 19.74 7.8007 18.4671 10.2813 17.9188C11.0385 15.2815 12.4354 13.0621 14.4721 11.2604C16.5088 9.47181 18.8653 8.38167 21.5417 7.99001V23.7938L18.4083 20.7583L15.6667 23.5L23.5 31.3333L31.3333 23.5L28.5917 20.7583L25.4583 23.7938V7.99001C28.8267 8.44695 31.6271 9.95487 33.8596 12.5138C36.0921 15.0726 37.2083 18.0819 37.2083 21.5417C39.467 21.8028 41.3339 22.7819 42.8092 24.4792C44.2975 26.1503 45.0417 28.1086 45.0417 30.3542C45.0417 32.8086 44.1865 34.891 42.4763 36.6013C40.766 38.3115 38.6836 39.1667 36.2292 39.1667H12.7292Z" fill="white"/>
</svg>
