<svg width="49" height="49" viewBox="0 0 49 49" fill="none" xmlns="http://www.w3.org/2000/svg">
<g clip-path="url(#clip0_11_40)">
<path fill-rule="evenodd" clip-rule="evenodd" d="M23.0668 4.48146C23.9909 4.13506 25.0091 4.13506 25.9333 4.48146L40.2249 9.84084C41.0034 10.1327 41.6743 10.6552 42.1479 11.3385C42.6214 12.0219 42.8751 12.8335 42.875 13.6649V24.6143C42.8751 28.0268 41.9249 31.3719 40.1309 34.2748C38.3369 37.1777 35.7699 39.5236 32.7177 41.0498L25.87 44.4716C25.4446 44.6843 24.9756 44.7951 24.5 44.7951C24.0244 44.7951 23.5554 44.6843 23.13 44.4716L16.2823 41.0477C13.2301 39.5216 10.6632 37.1756 8.86914 34.2728C7.07513 31.3699 6.12493 28.0248 6.125 24.6123V13.6669C6.12448 12.8352 6.37797 12.0231 6.85156 11.3394C7.32515 10.6556 7.99626 10.1328 8.77508 9.84084L23.0668 4.48146ZM26.5417 23.9528C27.3201 23.5034 27.9284 22.8096 28.2724 21.9792C28.6163 21.1488 28.6767 20.228 28.444 19.3598C28.2114 18.4916 27.6988 17.7244 26.9857 17.1772C26.2726 16.63 25.3988 16.3334 24.5 16.3333C23.6012 16.3334 22.7274 16.63 22.0143 17.1772C21.3012 17.7244 20.7886 18.4916 20.556 19.3598C20.3233 20.228 20.3837 21.1488 20.7276 21.9792C21.0716 22.8096 21.6799 23.5034 22.4583 23.9528V30.625C22.4583 31.1665 22.6734 31.6858 23.0563 32.0687C23.4392 32.4516 23.9585 32.6667 24.5 32.6667C25.0415 32.6667 25.5608 32.4516 25.9437 32.0687C26.3266 31.6858 26.5417 31.1665 26.5417 30.625V23.9528Z" fill="white"/>
</g>
<defs>
<clipPath id="clip0_11_40">
<rect width="49" height="49" fill="white"/>
</clipPath>
</defs>
</svg>
