<svg width="85" height="61" viewBox="0 0 85 61" fill="none" xmlns="http://www.w3.org/2000/svg">
<path d="M21.25 61C15.3902 61 10.3842 58.9858 6.23205 54.9575C2.07735 50.9292 0 46.0058 0 40.1871C0 35.1997 1.51326 30.7558 4.53977 26.8553C7.56629 22.9549 11.5265 20.4612 16.4205 19.3742C17.5152 14.7704 20.2519 10.3905 24.6307 6.23428C29.0095 2.07809 33.678 0 38.6364 0C40.7614 0 42.5811 0.75067 44.0957 2.25201C45.6077 3.75591 46.3636 5.56289 46.3636 7.67296V30.8836L52.5455 24.9371L57.9545 30.3082L42.5 45.6541L27.0455 30.3082L32.4545 24.9371L38.6364 30.8836V7.67296C33.7424 8.56813 29.9432 10.9173 27.2386 14.7206C24.5341 18.5264 23.1818 22.4434 23.1818 26.4717H21.25C17.5152 26.4717 14.3277 27.7825 11.6875 30.4041C9.04735 33.0257 7.72727 36.1908 7.72727 39.8994C7.72727 43.608 9.04735 46.7731 11.6875 49.3947C14.3277 52.0162 17.5152 53.327 21.25 53.327H67.6136C70.3182 53.327 72.6042 52.3999 74.4716 50.5456C76.339 48.6913 77.2727 46.4214 77.2727 43.7358C77.2727 41.0503 76.339 38.7804 74.4716 36.9261C72.6042 35.0718 70.3182 34.1447 67.6136 34.1447H61.8182V26.4717C61.8182 23.4025 61.1098 20.5405 59.6932 17.8857C58.2765 15.2334 56.4091 12.9801 54.0909 11.1258V2.20598C58.8561 4.44392 62.6231 7.75352 65.392 12.1348C68.161 16.5135 69.5455 21.2925 69.5455 26.4717C73.9886 26.9832 77.6758 28.8848 80.607 32.1765C83.5357 35.4708 85 39.3239 85 43.7358C85 48.5314 83.3103 52.6083 79.9309 55.9665C76.5489 59.3222 72.4432 61 67.6136 61H21.25Z" fill="#FFA800"/>
</svg>
