<svg width="51" height="57" viewBox="0 0 51 57" fill="none" xmlns="http://www.w3.org/2000/svg">
                    <path d="M50.6162 16.3067C50.5994 16.232 50.5994 16.1547 50.6162 16.08C50.6019 16.0146 50.6019 15.9471 50.6162 15.8817V15.6267L50.4387 15.2017C50.3666 15.0857 50.2769 14.9807 50.1725 14.89L49.9062 14.6633H49.7583L38.1025 7.60835L27.0975 1.09168C26.8429 0.89825 26.5515 0.753921 26.2396 0.666682H26.0029C25.7385 0.624412 25.4686 0.624412 25.2042 0.666682H24.9083C24.5647 0.739476 24.2352 0.863785 23.9321 1.03502L1.83332 14.21L1.56707 14.4083L1.30082 14.635L1.00499 14.8333L0.857072 15.0033L0.679571 15.4283V15.6833V15.8533C0.650836 16.0412 0.650836 16.2321 0.679571 16.42V41.155C0.678565 41.6365 0.805703 42.1103 1.04898 42.5317C1.29226 42.9531 1.64365 43.3081 2.06999 43.5633L24.2575 56.71L24.7012 56.88H24.9379C25.4384 57.032 25.9757 57.032 26.4762 56.88H26.7129L27.1567 56.71L49.1667 43.7617C49.593 43.5065 49.9444 43.1514 50.1877 42.73C50.4309 42.3087 50.5581 41.8349 50.5571 41.3534V16.6183C50.5571 16.6183 50.6162 16.42 50.6162 16.3067ZM25.5 6.81502L30.7658 9.93168L14.2287 19.735L8.93332 16.6183L25.5 6.81502ZM22.5417 49.315L6.27082 39.795V21.69L22.5417 31.3233V49.315ZM25.5 26.3367L19.8496 23.0783L36.3867 13.2467L42.0667 16.6183L25.5 26.3367ZM44.7292 39.71L28.4583 49.4V31.3233L44.7292 21.69V39.71Z" fill="#393939"></path>
                  </svg>