<svg width="82" height="82" viewBox="0 0 82 82" fill="none" xmlns="http://www.w3.org/2000/svg">
<path d="M20.4693 35.5598C20.7358 38.3786 19.2316 40.8232 17.1303 40.9923C15.0291 41.1589 13.1072 39.0115 12.8433 36.1928C12.5768 33.3715 14.0809 30.9294 16.1822 30.7603C18.2834 30.5732 20.2053 32.718 20.4693 35.5598ZM32.5053 66.6148C34.6066 66.4482 36.1108 64.0061 35.8443 61.1848C35.5803 58.343 33.6559 56.1982 31.5572 56.3878C29.4559 56.5544 27.9518 58.9965 28.2183 61.8178C28.4822 64.6365 30.4066 66.7839 32.5053 66.6148ZM65.8204 30.7603C67.9216 30.9268 69.4233 33.3689 69.1568 36.1902C68.8928 39.032 66.9684 41.1768 64.8671 40.9898C62.7659 40.8206 61.2643 38.3786 61.5308 35.5573C61.7947 32.7385 63.7191 30.5911 65.8204 30.7603ZM61.4693 49.0027C61.7358 46.1839 60.2316 43.7393 58.1329 43.5702C56.0316 43.4036 54.1098 45.551 53.8433 48.3698C53.5768 51.1911 55.0809 53.6331 57.1796 53.8023C59.2809 53.9893 61.2028 51.8445 61.4693 49.0027ZM50.4454 56.3853C52.5466 56.5518 54.0483 58.9939 53.7818 61.8152C53.5178 64.657 51.5934 66.8018 49.4921 66.6122C47.3909 66.4456 45.8893 64.0036 46.1558 61.1823C46.4197 58.3635 48.3441 56.2161 50.4454 56.3853Z" fill="#F8F8F8"/>
<path d="M35.5752 6.28068L11.5159 16.6665C10.9547 16.9176 10.4499 17.2559 10.004 17.6659C8.61064 18.007 7.37224 18.8062 6.48748 19.9354C5.60273 21.0646 5.12291 22.4582 5.12501 23.8927V60.2034C5.12518 61.6966 5.56027 63.1575 6.37711 64.4076C7.19394 65.6577 8.35717 66.6428 9.72469 67.2425L34.5835 78.1409C35.3446 78.474 36.121 78.6482 36.8898 78.679C39.5381 79.6869 42.4645 79.6869 45.1128 78.679C45.8764 78.6482 46.6554 78.474 47.4165 78.1409L72.2728 67.2425C73.6412 66.643 74.8052 65.6576 75.6225 64.407C76.4399 63.1565 76.8751 61.6948 76.875 60.2008V23.8902C76.8774 22.5113 76.4341 21.1686 75.6112 20.0622C74.7883 18.9557 73.6299 18.1449 72.3086 17.7504C71.859 17.2957 71.329 16.9281 70.7455 16.6665L46.4274 6.28068C44.72 5.51838 42.8711 5.12439 41.0013 5.12439C39.1314 5.12439 37.2826 5.51838 35.5752 6.28068ZM38.4375 37.9506V72.2779C38.437 72.4903 38.3836 72.6993 38.2822 72.8861C38.1808 73.0728 38.0346 73.2313 37.8567 73.3475C37.6788 73.4636 37.4748 73.5337 37.263 73.5514C37.0513 73.5691 36.8385 73.5339 36.6438 73.4489L11.7798 62.5506C11.3241 62.3499 10.9367 62.0208 10.665 61.6035C10.3933 61.1862 10.2491 60.6988 10.25 60.2008V23.8902C10.2503 23.6761 10.3041 23.4656 10.4067 23.2777C10.5093 23.0898 10.6573 22.9307 10.8372 22.8147C11.0171 22.6988 11.2232 22.6297 11.4366 22.6139C11.6501 22.5981 11.8641 22.6361 12.0591 22.7242L35.4214 33.2766C36.3208 33.6827 37.0838 34.3397 37.6188 35.1688C38.1538 35.9979 38.4381 36.9639 38.4375 37.9506ZM43.5625 72.2779V37.9455C43.5624 36.9592 43.8469 35.9938 44.3819 35.1652C44.9169 34.3366 45.6796 33.6799 46.5786 33.274L69.9409 22.7217C70.1361 22.6334 70.3503 22.5955 70.564 22.6114C70.7777 22.6274 70.9839 22.6966 71.1639 22.8129C71.3439 22.9291 71.4918 23.0886 71.5942 23.2768C71.6966 23.465 71.7502 23.6759 71.75 23.8902V60.2008C71.7497 60.6982 71.6046 61.1847 71.3325 61.601C71.0604 62.0174 70.673 62.3456 70.2176 62.5455L45.3563 73.4464C45.1614 73.5319 44.9483 73.5676 44.7362 73.5501C44.5241 73.5327 44.3197 73.4627 44.1415 73.3465C43.9632 73.2303 43.8167 73.0715 43.7152 72.8845C43.6136 72.6975 43.5603 72.4881 43.5599 72.2753L43.5625 72.2779ZM41 19.2187C36.7539 19.2187 33.3125 18.0707 33.3125 16.6562C33.3125 15.2417 36.7539 14.0937 41 14.0937C45.2461 14.0937 48.6875 15.2417 48.6875 16.6562C48.6875 18.0707 45.2461 19.2187 41 19.2187Z" fill="#F8F8F8"/>
</svg>
