<svg width="43" height="43" viewBox="0 0 43 43" fill="none" xmlns="http://www.w3.org/2000/svg">
<g clip-path="url(#clip0_15_78)">
<path d="M20.5782 16.7888C20.8738 15.9019 22.1262 15.9019 22.4218 16.7888L24.1553 21.9945C24.5368 23.1388 25.1797 24.1786 26.0329 25.0313C26.8861 25.8841 27.9261 26.5263 29.0707 26.9073L34.2737 28.6407C35.1606 28.9363 35.1606 30.1887 34.2737 30.4843L29.068 32.2178C27.9237 32.5993 26.8839 33.2422 26.0312 34.0954C25.1785 34.9486 24.5362 35.9886 24.1553 37.1332L22.4218 42.3362C22.3581 42.5304 22.2346 42.6995 22.0691 42.8194C21.9036 42.9393 21.7044 43.0038 21.5 43.0038C21.2956 43.0038 21.0964 42.9393 20.9309 42.8194C20.7654 42.6995 20.6419 42.5304 20.5782 42.3362L18.8448 37.1305C18.4635 35.9865 17.821 34.9469 16.9683 34.0942C16.1156 33.2415 15.0761 32.599 13.932 32.2178L8.72632 30.4843C8.53212 30.4206 8.36301 30.2971 8.24311 30.1316C8.12322 29.9661 8.05867 29.7669 8.05867 29.5625C8.05867 29.3581 8.12322 29.1589 8.24311 28.9934C8.36301 28.8279 8.53212 28.7044 8.72632 28.6407L13.932 26.9073C15.0761 26.526 16.1156 25.8835 16.9683 25.0308C17.821 24.1781 18.4635 23.1386 18.8448 21.9945L20.5782 16.7888ZM10.1964 3.08525C10.2349 2.96887 10.3092 2.86759 10.4085 2.79581C10.5079 2.72403 10.6274 2.68539 10.75 2.68539C10.8726 2.68539 10.9921 2.72403 11.0915 2.79581C11.1909 2.86759 11.2651 2.96887 11.3036 3.08525L12.3437 6.20813C12.8086 7.60025 13.8998 8.69138 15.2919 9.15632L18.4148 10.1964C18.5311 10.2349 18.6324 10.3092 18.7042 10.4085C18.776 10.5079 18.8146 10.6274 18.8146 10.75C18.8146 10.8726 18.776 10.9921 18.7042 11.0915C18.6324 11.1909 18.5311 11.2651 18.4148 11.3036L15.2919 12.3437C14.6053 12.5724 13.9814 12.958 13.4697 13.4697C12.958 13.9814 12.5724 14.6053 12.3437 15.2919L11.3036 18.4148C11.2651 18.5311 11.1909 18.6324 11.0915 18.7042C10.9921 18.776 10.8726 18.8146 10.75 18.8146C10.6274 18.8146 10.5079 18.776 10.4085 18.7042C10.3092 18.6324 10.2349 18.5311 10.1964 18.4148L9.15632 15.2919C8.92757 14.6053 8.54206 13.9814 8.03033 13.4697C7.5186 12.958 6.89472 12.5724 6.20813 12.3437L3.08526 11.3036C2.96888 11.2651 2.8676 11.1909 2.79581 11.0915C2.72403 10.9921 2.68539 10.8726 2.68539 10.75C2.68539 10.6274 2.72403 10.5079 2.79581 10.4085C2.8676 10.3092 2.96888 10.2349 3.08526 10.1964L6.20813 9.15632C6.89472 8.92757 7.5186 8.54205 8.03033 8.03032C8.54206 7.5186 8.92757 6.89472 9.15632 6.20813L10.1964 3.08525ZM29.1943 0.266067C29.2209 0.189544 29.2706 0.123188 29.3366 0.076226C29.4025 0.0292637 29.4815 0.00402832 29.5625 0.00402832C29.6435 0.00402832 29.7225 0.0292637 29.7885 0.076226C29.8545 0.123188 29.9042 0.189544 29.9307 0.266067L30.6241 2.34619C30.9331 3.27607 31.6614 4.00438 32.5913 4.31344L34.6714 5.00682C34.748 5.03335 34.8143 5.08306 34.8613 5.14905C34.9082 5.21503 34.9335 5.29401 34.9335 5.375C34.9335 5.456 34.9082 5.53498 34.8613 5.60096C34.8143 5.66695 34.748 5.71666 34.6714 5.74319L32.5913 6.43657C32.1331 6.58901 31.7167 6.84619 31.3752 7.18768C31.0337 7.52917 30.7765 7.94557 30.6241 8.40382L29.9307 10.4839C29.9042 10.5605 29.8545 10.6268 29.7885 10.6738C29.7225 10.7207 29.6435 10.746 29.5625 10.746C29.4815 10.746 29.4025 10.7207 29.3366 10.6738C29.2706 10.6268 29.2209 10.5605 29.1943 10.4839L28.5009 8.40382C28.3485 7.94557 28.0913 7.52917 27.7498 7.18768C27.4083 6.84619 26.9919 6.58901 26.5337 6.43657L24.4563 5.74319C24.3797 5.71666 24.3134 5.66695 24.2664 5.60096C24.2195 5.53498 24.1942 5.456 24.1942 5.375C24.1942 5.29401 24.2195 5.21503 24.2664 5.14905C24.3134 5.08306 24.3797 5.03335 24.4563 5.00682L26.5364 4.31344C27.4663 4.00438 28.1946 3.27607 28.5036 2.34619L29.1943 0.268754V0.266067Z" fill="#F13086"/>
</g>
<defs>
<clipPath id="clip0_15_78">
<rect width="43" height="43" fill="white"/>
</clipPath>
</defs>
</svg>
