<svg width="43" height="43" viewBox="0 0 43 43" fill="none" xmlns="http://www.w3.org/2000/svg">
<path d="M7.80267 7.96279L12.8785 14.6605L19.4398 7.96279H7.80258H7.80267ZM23.6967 7.96279L30.1714 14.5713L35.1003 7.96271H23.6966L23.6967 7.96279ZM21.5682 8.03359L14.4532 15.2957H28.6832L21.5683 8.03359H21.5682ZM36.5096 8.69757L31.5859 15.2956H41.5328L36.5097 8.69757H36.5096ZM6.43784 8.76056L1.58522 15.2956H11.3929L6.43784 8.76056ZM1.52475 16.8651L19.0277 36.0478L12.0387 16.8649H1.52483L1.52475 16.8651ZM13.7078 16.8651L21.5681 38.4359L29.4285 16.8651H13.7079H13.7078ZM31.0976 16.8651L24.1089 36.0478L41.6117 16.8649H31.0977L31.0976 16.8651Z" fill="#F13086"/>
</svg>
