<svg width="48" height="46" viewBox="0 0 48 46" fill="none" xmlns="http://www.w3.org/2000/svg">
<path d="M24.066 0.95932L19.0187 11.1869L7.73205 12.8267L15.899 20.7877L13.9711 32.0286L24.066 26.7214L34.1611 32.0286L32.2331 20.7877L40.4 12.8268L29.1137 11.187L24.066 0.959422V0.95932ZM9.37503 28.3651L6.66595 33.8546L0.608154 34.7346L4.99159 39.0077L3.95687 45.0408L9.37503 42.1923L14.7932 45.0407L13.7585 39.0076L18.1419 34.7346L12.0841 33.8546L9.37503 28.365V28.3651ZM38.625 28.3651L35.916 33.8546L29.8582 34.7346L34.2416 39.0077L33.2069 45.0408L38.625 42.1923L44.0432 45.0407L43.0085 39.0076L47.3919 34.7346L41.3341 33.8546L38.625 28.365V28.3651Z" fill="#F8F8F8"/>
</svg>
