<svg width="45" height="45" viewBox="0 0 45 45" fill="none" xmlns="http://www.w3.org/2000/svg">
<path d="M33.75 9.37495H35.625V11.25C35.625 11.7472 35.8226 12.2241 36.1742 12.5758C36.5258 12.9274 37.0027 13.125 37.5 13.125C37.9973 13.125 38.4742 12.9274 38.8258 12.5758C39.1775 12.2241 39.375 11.7472 39.375 11.25V9.37495H41.25C41.7473 9.37495 42.2242 9.17741 42.5758 8.82578C42.9275 8.47414 43.125 7.99723 43.125 7.49995C43.125 7.00267 42.9275 6.52576 42.5758 6.17413C42.2242 5.82249 41.7473 5.62495 41.25 5.62495H39.375V3.74995C39.375 3.25267 39.1775 2.77576 38.8258 2.42413C38.4742 2.07249 37.9973 1.87495 37.5 1.87495C37.0027 1.87495 36.5258 2.07249 36.1742 2.42413C35.8226 2.77576 35.625 3.25267 35.625 3.74995V5.62495H33.75C33.2527 5.62495 32.7758 5.82249 32.4242 6.17413C32.0726 6.52576 31.875 7.00267 31.875 7.49995C31.875 7.99723 32.0726 8.47414 32.4242 8.82578C32.7758 9.17741 33.2527 9.37495 33.75 9.37495ZM13.125 13.125V31.875C13.125 32.3722 13.3226 32.8491 13.6742 33.2008C14.0258 33.5524 14.5027 33.75 15 33.75C15.4973 33.75 15.9742 33.5524 16.3258 33.2008C16.6775 32.8491 16.875 32.3722 16.875 31.875V13.125C16.875 12.6277 16.6775 12.1508 16.3258 11.7991C15.9742 11.4475 15.4973 11.25 15 11.25C14.5027 11.25 14.0258 11.4475 13.6742 11.7991C13.3226 12.1508 13.125 12.6277 13.125 13.125ZM40.5 16.875C40.2587 16.9242 40.0294 17.0204 39.8253 17.1582C39.6212 17.2961 39.4462 17.4728 39.3104 17.6782C39.1746 17.8837 39.0806 18.1139 39.0338 18.3557C38.9869 18.5975 38.9882 18.8461 39.0375 19.0875C39.7696 22.6428 39.3357 26.3395 37.8002 29.6288C36.2648 32.918 33.7096 35.6244 30.514 37.3463C27.3184 39.0682 23.6528 39.7138 20.0612 39.1872C16.4696 38.6606 13.1436 36.9899 10.5768 34.4231C8.01004 31.8564 6.33935 28.5303 5.81276 24.9388C5.28616 21.3472 5.93173 17.6815 7.65363 14.4859C9.37553 11.2904 12.082 8.73519 15.3712 7.19973C18.6604 5.66427 22.3571 5.23038 25.9125 5.96245C26.4098 6.06191 26.9262 5.95975 27.3482 5.67844C27.7701 5.39714 28.0631 4.95973 28.1625 4.46245C28.262 3.96517 28.1598 3.44875 27.8785 3.02679C27.5972 2.60483 27.1598 2.31191 26.6625 2.21245C25.2903 1.9568 23.8954 1.8437 22.5 1.87495C18.4208 1.87495 14.4331 3.08459 11.0414 5.35089C7.64961 7.61719 5.00605 10.8384 3.44499 14.6071C1.88394 18.3758 1.47549 22.5228 2.27131 26.5237C3.06713 30.5245 5.03147 34.1996 7.91593 37.084C10.8004 39.9685 14.4754 41.9328 18.4763 42.7286C22.4771 43.5245 26.6241 43.116 30.3929 41.555C34.1616 39.9939 37.3828 37.3504 39.6491 33.9586C41.9154 30.5668 43.125 26.5792 43.125 22.5C43.129 21.1145 42.9908 19.7322 42.7125 18.375C42.6676 18.1303 42.5744 17.8969 42.4385 17.6886C42.3025 17.4803 42.1264 17.3011 41.9205 17.1615C41.7146 17.0219 41.4829 16.9246 41.239 16.8754C40.9952 16.8262 40.7439 16.8261 40.5 16.875ZM20.625 16.875V18.75C20.6333 20.1376 21.1542 21.4731 22.0875 22.5C21.1542 23.5268 20.6333 24.8623 20.625 26.25V28.125C20.625 29.6168 21.2176 31.0475 22.2725 32.1024C23.3274 33.1573 24.7582 33.75 26.25 33.75H28.125C29.6168 33.75 31.0476 33.1573 32.1025 32.1024C33.1574 31.0475 33.75 29.6168 33.75 28.125V26.25C33.7417 24.8623 33.2209 23.5268 32.2875 22.5C33.2209 21.4731 33.7417 20.1376 33.75 18.75V16.875C33.75 15.3831 33.1574 13.9524 32.1025 12.8975C31.0476 11.8426 29.6168 11.25 28.125 11.25H26.25C24.7582 11.25 23.3274 11.8426 22.2725 12.8975C21.2176 13.9524 20.625 15.3831 20.625 16.875ZM30 28.125C30 28.6222 29.8025 29.0991 29.4508 29.4508C29.0992 29.8024 28.6223 30 28.125 30H26.25C25.7527 30 25.2758 29.8024 24.9242 29.4508C24.5726 29.0991 24.375 28.6222 24.375 28.125V26.25C24.375 25.7527 24.5726 25.2758 24.9242 24.9241C25.2758 24.5725 25.7527 24.375 26.25 24.375H28.125C28.6223 24.375 29.0992 24.5725 29.4508 24.9241C29.8025 25.2758 30 25.7527 30 26.25V28.125ZM30 16.875V18.75C30 19.2472 29.8025 19.7241 29.4508 20.0758C29.0992 20.4274 28.6223 20.625 28.125 20.625H26.25C25.7527 20.625 25.2758 20.4274 24.9242 20.0758C24.5726 19.7241 24.375 19.2472 24.375 18.75V16.875C24.375 16.3777 24.5726 15.9008 24.9242 15.5491C25.2758 15.1975 25.7527 15 26.25 15H28.125C28.6223 15 29.0992 15.1975 29.4508 15.5491C29.8025 15.9008 30 16.3777 30 16.875Z" fill="white"/>
</svg>
